<svg width="61" height="51" viewBox="0 0 61 51" fill="none" xmlns="http://www.w3.org/2000/svg">
<path fill-rule="evenodd" clip-rule="evenodd" d="M52.7045 10.7384C51.9924 10.6424 51.2405 10.6833 50.5376 11.1493C50.1598 11.3998 49.8036 11.663 49.4573 11.919C49.4102 11.9538 49.3632 11.9885 49.3165 12.023C48.923 12.3132 48.538 12.592 48.1271 12.8457C47.9637 12.9465 47.9087 13.1681 48.0042 13.3406C48.0997 13.513 48.3096 13.5711 48.473 13.4702C48.91 13.2006 49.3147 12.9069 49.709 12.6161C49.7565 12.5811 49.8037 12.5462 49.8509 12.5113C50.1985 12.2545 50.5399 12.0021 50.9022 11.762C51.4181 11.4199 51.9878 11.3711 52.6176 11.4561C52.9337 11.4987 53.2568 11.5739 53.5899 11.6582C53.6688 11.6782 53.7487 11.6988 53.8292 11.7196C54.0828 11.785 54.3426 11.8521 54.5957 11.9055C56.7342 12.3573 58.1395 13.9542 58.9215 15.986C59.706 18.0245 59.8459 20.467 59.4596 22.5046C59.407 22.7816 59.3631 23.07 59.3201 23.3527C59.3053 23.4501 59.2906 23.5468 59.2756 23.6421C59.2164 24.0202 59.1526 24.3856 59.0624 24.7317C58.8825 25.4223 58.6057 26.0044 58.0875 26.4172C55.8609 28.1914 53.7498 29.705 51.3586 31.2189C49.7055 32.2656 48.1707 33.5665 46.6757 34.8645C46.5242 34.996 46.3732 35.1275 46.2225 35.2586C44.8793 36.4277 43.5624 37.5739 42.192 38.538C42.0345 38.6488 41.9919 38.8734 42.0968 39.0396C42.2018 39.2059 42.4146 39.2508 42.5721 39.14C43.9735 38.1541 45.3182 36.9836 46.6569 35.8183C46.8084 35.6865 46.9597 35.5547 47.1111 35.4233C48.6071 34.1244 50.1066 32.8553 51.7112 31.8394C54.1244 30.3115 56.2556 28.7834 58.5005 26.9946C59.1869 26.4477 59.5227 25.6936 59.7233 24.9236C59.8234 24.5394 59.8918 24.1433 59.9519 23.7602C59.968 23.6573 59.9834 23.5559 59.9987 23.4558C60.0411 23.1773 60.0819 22.9089 60.1317 22.6466C60.5416 20.4846 60.3967 17.8967 59.5565 15.7137C58.7138 13.5241 57.1546 11.7083 54.7302 11.1961C54.4926 11.1459 54.2528 11.0841 54.0027 11.0195C53.9196 10.9981 53.8354 10.9764 53.7498 10.9547C53.4122 10.8692 53.0593 10.7863 52.7045 10.7384Z" fill="black"/>
<path fill-rule="evenodd" clip-rule="evenodd" d="M48.5105 12.8724C48.3611 12.7498 48.1458 12.7781 48.0296 12.9358C47.3593 13.8452 46.7429 14.8049 46.1342 15.7526C45.9226 16.082 45.7119 16.41 45.5003 16.7339C44.6745 17.9976 43.8255 19.2125 42.8143 20.2796C42.6804 20.4208 42.6804 20.6499 42.8142 20.7912C42.948 20.9325 43.165 20.9325 43.2989 20.7912C44.3557 19.676 45.2332 18.4168 46.0645 17.1447C46.2832 16.8101 46.4981 16.4754 46.7122 16.1421C47.3172 15.2002 47.9152 14.2692 48.5705 13.3801C48.6868 13.2224 48.6599 12.9951 48.5105 12.8724Z" fill="black"/>
<path fill-rule="evenodd" clip-rule="evenodd" d="M37.5383 8.01744C38.2544 8.07078 38.984 8.26665 39.5866 8.86925C39.9105 9.19308 40.2108 9.52504 40.5028 9.84774C40.5426 9.89164 40.5821 9.93537 40.6216 9.97889C40.9534 10.3449 41.2791 10.6981 41.6349 11.032C41.7764 11.1647 41.7891 11.3934 41.6634 11.5427C41.5376 11.692 41.321 11.7054 41.1795 11.5727C40.8012 11.2178 40.459 10.846 40.1264 10.4791C40.0864 10.435 40.0465 10.3909 40.0068 10.347C39.7137 10.0231 39.4258 9.70499 39.1152 9.39447C38.673 8.9522 38.1234 8.78632 37.49 8.73914C37.1721 8.71545 36.8414 8.72225 36.499 8.73596C36.418 8.73921 36.3358 8.74287 36.253 8.74656C35.9922 8.7582 35.725 8.77011 35.4669 8.77011C33.286 8.77011 31.6111 10.0448 30.4665 11.8751C29.3182 13.7114 28.7269 16.0774 28.7269 18.1555C28.7269 18.438 28.7163 18.7299 28.706 19.0159C28.7024 19.1145 28.6989 19.2124 28.6958 19.309C28.6836 19.6919 28.6782 20.0635 28.7023 20.4216C28.7503 21.136 28.9135 21.7641 29.3448 22.2762C31.1983 24.4772 32.9869 26.3987 35.0501 28.3785C36.4765 29.7472 37.7395 31.3408 38.9641 32.9233C39.0882 33.0836 39.2118 33.2438 39.3352 33.4036C40.4349 34.8282 41.5131 36.2249 42.6777 37.4541C42.8115 37.5954 42.8115 37.8245 42.6777 37.9657C42.5438 38.107 42.3268 38.107 42.193 37.9657C41.0021 36.7087 39.9012 35.2824 38.8052 33.8624C38.6812 33.7017 38.5573 33.5412 38.4333 33.381C37.2079 31.7975 35.9735 30.2424 34.589 28.9138C32.5068 26.9158 30.7012 24.9759 28.8325 22.7569C28.2611 22.0784 28.0721 21.2694 28.0186 20.4728C27.9919 20.0753 27.9984 19.6727 28.0107 19.2846C28.0141 19.1804 28.0178 19.0778 28.0215 18.9764C28.0317 18.6946 28.0415 18.423 28.0415 18.1555C28.0415 15.9506 28.6648 13.443 29.8945 11.4766C31.1279 9.50405 32.9944 8.04661 35.4669 8.04661C35.7092 8.04661 35.9558 8.03563 36.2131 8.02417C36.2985 8.02037 36.3851 8.01651 36.4731 8.01299C36.82 7.99909 37.1815 7.99085 37.5383 8.01744Z" fill="black"/>
<path fill-rule="evenodd" clip-rule="evenodd" d="M41.2539 10.9788C41.4232 10.8894 41.6291 10.9619 41.7137 11.1406C42.2019 12.1711 42.6279 13.2399 43.0485 14.2952C43.1948 14.662 43.3403 15.0273 43.4876 15.3887C44.0624 16.7989 44.669 18.1661 45.4622 19.4219C45.5672 19.5881 45.5246 19.8127 45.3671 19.9235C45.2096 20.0344 44.9969 19.9894 44.8919 19.8232C44.063 18.5108 43.4366 17.0942 42.858 15.6746C42.7058 15.3012 42.5573 14.9286 42.4093 14.5574C41.9912 13.5085 41.5779 12.4717 41.1007 11.4641C41.016 11.2854 41.0846 11.0681 41.2539 10.9788Z" fill="black"/>
<path d="M43.2188 2C43.2188 2.8125 42.8438 3.28125 42.0938 3.40625C41.7812 3.53125 41.4688 3.59375 41.1562 3.59375C40.9062 3.53125 40.625 3.53125 40.3125 3.59375C39.5625 3.65625 38.8125 3.75 38.0625 3.875C37.375 4 36.6562 4.125 35.9062 4.25C32.5312 4.9375 29.2188 6.0625 25.9688 7.625C22.7812 9.125 20 11.125 17.625 13.625C16.9375 14.375 16.375 15.1875 15.9375 16.0625C15.5625 16.875 15.375 17.8125 15.375 18.875C15.375 19.5625 15.75 20.0938 16.5 20.4688C17.25 20.8438 18.1562 21.2188 19.2188 21.5938C20.3438 21.9688 21.5312 22.375 22.7812 22.8125C24.0938 23.25 25.2812 23.875 26.3438 24.6875C27.4688 25.5 28.4062 26.5625 29.1562 27.875C29.9062 29.125 30.2812 30.75 30.2812 32.75C30.2812 35.0625 29.8438 37.2812 28.9688 39.4062C28.0938 41.5312 26.875 43.4375 25.3125 45.125C23.75 46.75 21.9375 48.0312 19.875 48.9688C17.8125 49.9688 15.625 50.4688 13.3125 50.4688C11.125 50.4688 9.1875 50 7.5 49.0625C5.875 48.125 4.5 46.9062 3.375 45.4062C2.25 43.9062 1.40625 42.2188 0.84375 40.3438C0.28125 38.4062 0 36.4375 0 34.4375C0 34.0625 0 33.5938 0 33.0312C0.0625 32.4062 0.125 31.8125 0.1875 31.25C0.3125 30.6875 0.5 30.1875 0.75 29.75C1 29.3125 1.375 29.0938 1.875 29.0938C2.1875 29.0938 2.5 29.2188 2.8125 29.4688C3.1875 29.7188 3.375 30.0312 3.375 30.4062C3.375 31.8438 3.53125 33.4375 3.84375 35.1875C4.21875 36.9375 4.78125 38.5625 5.53125 40.0625C6.28125 41.5625 7.28125 42.8438 8.53125 43.9062C9.78125 44.9062 11.3125 45.4062 13.125 45.4062C14.75 45.4062 16.3125 45.0625 17.8125 44.375C19.3125 43.625 20.625 42.6562 21.75 41.4688C22.9375 40.2812 23.8438 38.9375 24.4688 37.4375C25.1562 35.875 25.5 34.2812 25.5 32.6562V31.7188C25.5 30.6562 25.125 29.7812 24.375 29.0938C23.6875 28.4062 22.8125 27.8438 21.75 27.4062C20.6875 26.9062 19.5312 26.4375 18.2812 26C17.0312 25.5625 15.875 25.0625 14.8125 24.5C13.75 23.875 12.8438 23.125 12.0938 22.25C11.4062 21.375 11.0625 20.2188 11.0625 18.7812C11.0625 17.2812 11.375 15.8438 12 14.4688C12.6875 13.0938 13.5625 11.875 14.625 10.8125C18.3125 7.25 22.5312 4.6875 27.2812 3.125C32.0938 1.5 37.0312 0.6875 42.0938 0.6875C42.4688 0.6875 42.75 0.84375 42.9375 1.15625C43.125 1.40625 43.2188 1.6875 43.2188 2Z" fill="black"/>
</svg>
