<?xml version="1.0" encoding="UTF-8"?>
<svg id="logo" xmlns="http://www.w3.org/2000/svg" viewBox="0 0 1378.89 1137.43">
  <defs>
    <style>
      .cls-1 {
        fill: none;
        stroke: #000;
        stroke-miterlimit: 10;
        stroke-width: 7px;
      }
    </style>
  </defs>
  <path class="cls-1" d="M469.46,246.83c6.44-11.63,12.87-23.25,18.89-35.08,15.34-30.15,28.1-62.31,29.55-95.69,1.45-33.39-9.83-68.37-35.96-89.78C455.03,4.21,416.19-.45,381.24,6.45c-34.94,6.9-66.91,23.98-97.65,41.74-53.1,30.66-110.62,74.26-110.44,133.66.17,55.25,50.36,95.77,96.07,128.18,50.5,35.81,101,71.62,151.5,107.44,59.08,41.9,124.51,96.53,118.36,167.8-3.46,40.15-30.85,76.17-65.52,98.95-34.66,22.78-75.96,33.92-117.03,40.92-35.66,6.08-73.43,9.14-106.79-3.72-43.41-16.73-72.48-59.14-80.02-103.9-7.54-44.76,4.12-91.24,24.35-132.6"/>
  <path class="cls-1" d="M563.26,451.76c27.95,57.48,72.78,131.37,100.73,188.85,10.08-75.58,20.17-151.17,30.25-226.75"/>
  <path class="cls-1" d="M699.49,662.54c33.48-79.12,54.95-163.02,63.5-248.16,42.63,76.85,80.57,156.15,113.56,237.35"/>
  <g>
    <line class="cls-1" x1="776.97" y1="132.61" x2="769.73" y2="366.94"/>
    <line class="cls-1" x1="909.66" y1="247.43" x2="811.89" y2="247.43"/>
    <line class="cls-1" x1="904.26" y1="141.98" x2="806.49" y2="141.98"/>
    <line class="cls-1" x1="906.67" y1="366.94" x2="808.91" y2="366.94"/>
  </g>
  <g>
    <line class="cls-1" x1="556.13" y1="168.22" x2="548.89" y2="402.55"/>
    <line class="cls-1" x1="703.3" y1="164.7" x2="696.06" y2="399.04"/>
    <line class="cls-1" x1="676.19" y1="281.87" x2="578.42" y2="281.87"/>
  </g>
  <g>
    <line class="cls-1" x1="983.32" y1="161.98" x2="976.09" y2="396.32"/>
    <line class="cls-1" x1="1011.04" y1="182.32" x2="1131.73" y2="385.35"/>
    <line class="cls-1" x1="1166.68" y1="159.64" x2="1159.44" y2="393.97"/>
  </g>
  <line class="cls-1" x1="913.09" y1="421.3" x2="905.85" y2="655.63"/>
  <line class="cls-1" x1="940.8" y1="441.64" x2="1061.49" y2="644.67"/>
  <line class="cls-1" x1="1096.44" y1="418.95" x2="1089.21" y2="653.29"/>
  <path class="cls-1" d="M1208.07,417.93c-3.34-.49-6.75-.76-10.22-.76-39.48,0-71.48,32.89-71.48,73.49,0,18.58,6.7,35.55,17.75,48.49-9.14,12.68-14.59,28.62-14.59,45.97,0,39.7,28.57,72.17,64.69,74.63"/>
</svg>