<?xml version="1.0" encoding="UTF-8"?>
<svg id="Artwork" xmlns="http://www.w3.org/2000/svg" viewBox="0 0 347.72 379.47">
  <defs>
    <style>
      .cls-1 {
        fill: #9fd18d;
      }

      .cls-1, .cls-2 {
        stroke-width: 0px;
      }

      .cls-3, .cls-4, .cls-5, .cls-6, .cls-7, .cls-8, .cls-9, .cls-10, .cls-11, .cls-12, .cls-13, .cls-14 {
        stroke: #140000;
      }

      .cls-3, .cls-5, .cls-6, .cls-7, .cls-8, .cls-9, .cls-10, .cls-11, .cls-12, .cls-13, .cls-14 {
        stroke-miterlimit: 10;
      }

      .cls-3, .cls-2, .cls-14 {
        fill: #78917e;
      }

      .cls-4 {
        fill: #140000;
        font-family: Onyx, Onyx;
        font-size: 82.37px;
        letter-spacing: .03em;
      }

      .cls-5 {
        fill: #d1687f;
      }

      .cls-5, .cls-10, .cls-12, .cls-13, .cls-14 {
        stroke-width: .5px;
      }

      .cls-6, .cls-12 {
        fill: none;
      }

      .cls-7 {
        fill: #785353;
      }

      .cls-8 {
        fill: #fff;
      }

      .cls-9, .cls-13 {
        fill: #d1d3d4;
      }

      .cls-10 {
        fill: #e5727a;
      }

      .cls-11 {
        fill: #939598;
      }
    </style>
  </defs>
  <path class="cls-3" d="M220.76,150.54c.82,2.9-73.25,10.1-113.03.52.68-8.17,84.94-20.25,113.03-.52Z"/>
  <path class="cls-5" d="M150.47,132.41c-.09-.15-.18-.31-.26-.47,0-.02-.02-.03-.03-.06-3.26-5.45-8.83-11.74-14.98-18.63-.24-.26-.46-.52-.7-.78-11.65-13.06-14.43-12.95-17.39-20.14-4.26-10.34-.24-14.8-5.24-22.12-4.61-6.76-15.14-13.34-25.08-10.16-11.04,3.55-16.39,17.59-13.46,26.53,1.26,3.88,2.96,12.02,24.41,18.85,0,0,9.06,5.09,20.96,16.45.44.41,7.24,5.91,9.76,12.86.08.21.14.4.17.54,1.71,5.35.44,8.3,3.39,11.39,2.79,2.92,7.97,4.54,12.87,3.04,3.64-1.11,6.27-3.77,7.36-5.74,1.76-3.16.82-7.07-1.79-11.58ZM108.69,85.59c-1.41,5.45-6.37,11.01-12.87,11.8-6.45.77-11.28-3.52-12.24-4.37-.93-.82-2.95-2.81-4.23-5.98-2.13-5.21-2.49-14.28,3.81-18.92,5.68-4.18,13.07-2,13.86-1.76,7.82,2.42,13.82,10.91,11.67,19.23Z"/>
  <path class="cls-12" d="M108.69,85.59c-1.41,5.45-6.37,11.01-12.87,11.8-6.45.77-11.28-3.52-12.24-4.37-.93-.82-2.95-2.81-4.23-5.98-2.13-5.21-2.49-14.28,3.81-18.92,5.68-4.18,13.07-2,13.86-1.76,7.82,2.42,13.82,10.91,11.67,19.23Z"/>
  <path class="cls-13" d="M150.18,131.89c-3.26-5.45-8.83-11.74-14.98-18.63,0,0,.68-2.87.48-3.08,3.91,4.01,11.14,13.7,14.7,12.56.73-.23.18-.2.54-1.16-.21,3.77-2.18,7.27-.74,10.31Z"/>
  <path class="cls-12" d="M155.51,62.08c2.92,13.61-1.13,27.57-7.1,34.45-3.7,4.27-9.71,1.28-11.83-2.26-.91-1.51-.91-3.08-.89-3.55.53-11.53-7.82-31.93-11.86-44.57-2.3-7.18,12.54-10.73,16.89-6.93,7.64,6.66,13.51,16.94,14.79,22.87Z"/>
  <path class="cls-5" d="M134.99,31.91c-7.23.24-17.82,7.77-17.68,11.05.81,19.85,8.06,44.21,15.63,62.11.52,1.23,1.01,3.45,2.74,5.11,5.02,4.79,10.94,12.37,13.65,13.2.73.22,1.22-.84,1.59-1.79,1.22-3.18.99-10.29,3.37-21.32,3.07-14.22,5.88-13.77,7.29-22.64,2.82-17.86-15.14-46.09-26.58-45.71ZM148.41,96.52c-3.7,4.27-9.71,1.28-11.83-2.26-.91-1.51-.91-3.08-.89-3.55.53-11.53-7.82-31.93-11.86-44.57-2.3-7.18,12.54-10.73,16.89-6.93,7.64,6.66,13.51,16.94,14.79,22.87,2.92,13.61-1.13,27.57-7.1,34.45Z"/>
  <g>
    <path class="cls-9" d="M164.08,226.94v.15s.01.01.01.01l1.46,18.75-3.33.83-3.35-9.07s-1.71-5.23-2.71-7.84c-.98-2.62-2.23-6.76-2.23-6.76,0,0-14.99-57.96-18.73-72.73.29.41,1.21.73,1.21.73,0,0,3.37,9.38,13.22,35.57,6.01,15.96,13.5,37.74,14.44,40.34Z"/>
    <path class="cls-9" d="M136.81,149.57c10.53,3.38,15.45-5.58,15.45-5.58l20.43,81.21,4.42,17.78s.42-.16-4.05,1.01l-7.77-15.15-1.02-1.53-28.2-76.97c-.17-.46.27-.91.73-.76Z"/>
  </g>
  <path class="cls-13" d="M198.94,61.45c-.34,2.57-.89,11.93-.93,12.51l-3.73-.36s.07-.07.07-.12c.05-.53,1.64-14.13,1.64-14.13,0,0,5.1-8.5,5.32-10.81.31-3.04.94-2.52-7.85-8.53-8.8-6.02-7.91-6.63-7.91-6.63,13.02,4.45,22.23,9.44,18.73,17.87-2.82,6.81-4.82,6.19-5.36,10.19Z"/>
  <path class="cls-10" d="M185.41,302.39c-.19,0-.36,0-.55-.02-9.41-.38-11.46-4.12-12.31-12.52-.87-8.39,2.04-32.7,2.04-32.7l9.53-157.39c.26-4.45,1.08-8.84,2.44-13.07,1.28-3.97,2.85-8.57,3.82-10.31,1.68-2.97,3.5-2.51,3.89-2.77l3.73.36s3.53.28,3.95,3.88c1.35,4.21,3.32,12.78,3.55,18.9.21,6.13-9.95,187.37-10.28,191.36-.3,3.92-.93,14.24-9.82,14.29Z"/>
  <path class="cls-8" d="M187.82,297.98c-1.7.64-3.86.03-5.73-1.44-6.38-4.98-5.09-20.34.51-23.2.28-.15.61-.29,1.02-.41h.02c9.07.71,6.42,23.14,4.19,25.04Z"/>
  <path class="cls-11" d="M187.36,297.93c.08-.2,1.93-3.84,2.21-15.55,0,0,.55-7.1-6.4-9.49,2.31-.72,6.21-.66,8.77,3.77,1.9,3.29-.26,19.73-4.58,21.27Z"/>
  <path class="cls-7" d="M220.45,305.87h-113.12v-153.65c0-.44.15-.85.39-1.15,45,7.9,104.25,1.93,113.03-.04,1.72,12.15-.31,154.85-.31,154.85Z"/>
  <path class="cls-7" d="M236.17,179.86c-5.48,1.5-10.68,4.97-14.74,11.95l-.09,9.87c10.93-21.4,48.36-6.65,34.19,26.77-4.7,11.09-11.03,22.06-28.3,26.48.06-.01-4.09.99-5.85,5.18-1.25,2.98-.17,6.48-.59,17.27,1.94-4.3,4.5-6.72,6.8-8.53,2.75-2.17,25.84-10.09,33.98-24.94,24.34-44.43-5.32-69.55-25.4-64.05Z"/>
  <text class="cls-4" transform="translate(122.7 257.6)"><tspan x="0" y="0">JCC</tspan></text>
  <path class="cls-6" d="M204.19,180.22c-.02-2.48-1.66-4.77-3.78-6.07-2.31-1.42-5.32-1.81-7.76-.65-4,1.9-4,6.19-2.62,9.82,1.22,3.22,4.49,5.53,7.13,7.54,1.46,1.11,2.98,2.16,4.37,3.35,1.47,1.26,2.43,2.79,3.69,4.18,1.32-1.2,2.34-2.96,3.54-4.31,1.3-1.46,2.68-2.85,4.13-4.17,1.71-1.56,3.57-3.06,4.64-5.11,2.29-4.37-1.39-9.72-6.17-9.91-3.05-.12-7.1,2.1-7.17,5.48,0-.05,0-.1,0-.16Z"/>
  <g>
    <g>
      <g>
        <g>
          <path class="cls-2" d="M96.55,164.47c.21-.3.48-.57.82-.8.33.38.53.62.55.62,0,0,6.96,9.07,1.85,16.49-.14.21-.29.41-.43.59-.9-3.53-2.17-6.95-2.99-10.5-.4-1.71-.93-4.05-.16-5.77.09-.22.21-.42.34-.62t.02-.01Z"/>
          <path class="cls-1" d="M99.34,181.36c-.92,1.23-1.97,2.27-3.08,3.15-.75-6.4-1.69-18.19-.32-19.47.16.03.24.05.24.05-.77,1.71-.23,4.05.16,5.77.81,3.55,2.09,6.97,2.99,10.5Z"/>
          <path class="cls-2" d="M97.38,163.66c-.34.23-.62.51-.82.8t-.02.01c-.15.15-.35.33-.58.56-1.12-.23-6.18-1.09-12.41.64.35-.8.7-1.63,1.07-2.47,3.92-9.25,10.8-1.81,12.77.46Z"/>
          <path class="cls-2" d="M89.13,172.23h-.02c.12-.15,5.47-5.91,6.84-7.19-1.37,1.28-.43,13.07.32,19.47-.72-6.27-6.79-12.19-7.14-12.28Z"/>
          <path class="cls-1" d="M95.95,165.04c-1.37,1.28-6.72,7.04-6.84,7.19l-8.53.09c.93-2.04,1.93-4.25,2.97-6.64,6.23-1.72,11.29-.87,12.41-.64Z"/>
          <path class="cls-1" d="M96.27,184.51c-1.52,1.24-3.14,2.17-4.69,2.9l-4.73-12.06c.67-1.07,1.45-2.11,2.26-3.12h.02c.35.09,6.41,6.01,7.14,12.28Z"/>
          <path class="cls-2" d="M86.84,175.35l4.73,12.06c-3.69,1.69-6.96,2.14-7.39,2.26l-3.66.98s5.33-2.39,6.32-15.3Z"/>
          <path class="cls-2" d="M89.11,172.23c-.81,1.01-1.59,2.05-2.26,3.12l-1.91,2.68-8.32,2.91-.16-.09c1.24-2.45,2.62-5.29,4.13-8.53l8.53-.09Z"/>
          <path class="cls-1" d="M84.93,178.03l1.91-2.68c-.99,12.9-6.32,15.3-6.32,15.3l-11.44,3.09s.13-.18.37-.55c4.01-2.04,11.2-8.82,15.47-15.16Z"/>
          <path class="cls-1" d="M76.61,180.94l8.32-2.91c-4.27,6.34-11.47,13.11-15.47,15.16.89-1.34,3.37-5.23,6.99-12.33l.16.09Z"/>
        </g>
        <g>
          <path class="cls-12" d="M96.86,164.11c.09-.03-.03.09-.31.35"/>
          <path class="cls-12" d="M69.46,193.19c4.01-2.04,11.2-8.82,15.47-15.16"/>
          <line class="cls-12" x1="89.59" y1="172.23" x2="89.13" y2="172.23"/>
          <path class="cls-12" d="M80.57,172.32c.93-2.04,1.93-4.25,2.97-6.64"/>
          <path class="cls-12" d="M95.95,165.04c-1.37,1.28-6.72,7.04-6.84,7.19"/>
          <path class="cls-12" d="M96.53,164.48c-.15.15-.35.33-.58.56-1.12-.23-6.18-1.09-12.41.64.35-.8.7-1.63,1.07-2.47,3.92-9.25,10.8-1.81,12.77.46"/>
          <path class="cls-12" d="M96.19,165.09c.09-.22.21-.42.34-.62t.02-.01c.21-.3.48-.57.82-.8.33.38.53.62.55.62,0,0,6.96,9.07,1.85,16.49-.14.21-.29.41-.43.59"/>
          <path class="cls-12" d="M99.34,181.36c-.92,1.23-1.97,2.27-3.08,3.15-.75-6.4-1.69-18.19-.32-19.47.16.03.24.05.24.05-.77,1.71-.23,4.05.16,5.77.81,3.55,2.09,6.97,2.99,10.5Z"/>
          <path class="cls-12" d="M89.11,172.23h.02c.35.09,6.41,6.01,7.14,12.28-1.52,1.24-3.14,2.17-4.69,2.9"/>
          <path class="cls-12" d="M86.84,175.35l4.73,12.06c-3.69,1.69-6.96,2.14-7.39,2.26l-3.66.98"/>
          <path class="cls-12" d="M89.11,172.23c-.81,1.01-1.59,2.05-2.26,3.12-.99,12.9-6.32,15.3-6.32,15.3l-11.44,3.09s.13-.18.37-.55c.89-1.34,3.37-5.23,6.99-12.33,1.24-2.45,2.62-5.29,4.13-8.53l8.53-.09Z"/>
          <line class="cls-12" x1="91.59" y1="187.43" x2="91.58" y2="187.41"/>
          <line class="cls-12" x1="96.27" y1="184.52" x2="96.27" y2="184.51"/>
          <polyline class="cls-12" points="76.61 180.94 84.93 178.03 86.84 175.35"/>
        </g>
      </g>
      <polygon class="cls-14" points="79.41 184.86 77.67 190.98 68.87 193.92 79.41 184.86"/>
    </g>
    <g>
      <g>
        <g>
          <path class="cls-2" d="M86.08,250.45c.03-.36.12-.74.3-1.11.48.16.77.26.79.25,0,0,10.61,4.25,9.99,13.24-.02.25-.04.5-.07.73-2.57-2.57-5.41-4.87-7.92-7.51-1.21-1.27-2.87-3.01-3.08-4.88-.04-.23-.03-.47-.02-.7t.01-.02Z"/>
          <path class="cls-1" d="M97.09,263.56c-.17,1.53-.53,2.96-1.04,4.28-3.91-5.13-10.73-14.78-10.2-16.59.16-.06.24-.08.24-.08.21,1.87,1.87,3.6,3.08,4.88,2.51,2.64,5.35,4.94,7.92,7.51Z"/>
          <path class="cls-2" d="M86.38,249.34c-.18.37-.27.75-.3,1.11t-.01.02c-.05.21-.13.46-.22.78-1.08.37-5.87,2.22-10.35,6.87-.11-.87-.22-1.76-.34-2.67-1.34-9.95,8.36-7.06,11.22-6.11Z"/>
          <path class="cls-2" d="M83.65,260.91h-.02c.03-.18,1.69-7.86,2.22-9.67-.53,1.81,6.29,11.46,10.2,16.59-3.82-5.03-12.05-7.03-12.4-6.92Z"/>
          <path class="cls-1" d="M85.85,251.25c-.53,1.81-2.19,9.48-2.22,9.68l-7.3,4.43c-.24-2.23-.5-4.64-.84-7.23,4.48-4.66,9.27-6.5,10.35-6.87Z"/>
          <path class="cls-1" d="M96.05,267.84c-.67,1.84-1.59,3.47-2.56,4.89l-10.22-7.96c.03-1.26.17-2.55.36-3.84h.02c.35-.11,8.58,1.89,12.4,6.91Z"/>
          <path class="cls-2" d="M83.27,264.76l10.22,7.96c-2.31,3.34-4.9,5.39-5.21,5.71l-2.65,2.71s3.36-4.78-2.37-16.38Z"/>
          <path class="cls-2" d="M83.63,260.92c-.18,1.28-.32,2.58-.36,3.84l-.28,3.28-5.68,6.75h-.19c-.18-2.73-.44-5.88-.8-9.44l7.3-4.43Z"/>
          <path class="cls-1" d="M82.99,268.04l.28-3.28c5.73,11.61,2.37,16.38,2.37,16.38l-8.27,8.49s.02-.22.04-.66c2.41-3.8,5.14-13.3,5.59-20.93Z"/>
          <path class="cls-1" d="M77.32,274.79l5.68-6.75c-.44,7.63-3.18,17.13-5.59,20.93.08-1.61.24-6.22-.28-14.17h.19Z"/>
        </g>
        <g>
          <path class="cls-12" d="M86.16,249.99c.06-.07.02.09-.09.46"/>
          <path class="cls-12" d="M77.41,288.97c2.41-3.8,5.14-13.3,5.59-20.93"/>
          <line class="cls-12" x1="84.04" y1="260.68" x2="83.65" y2="260.91"/>
          <path class="cls-12" d="M76.33,265.35c-.24-2.23-.5-4.64-.84-7.23"/>
          <path class="cls-12" d="M85.85,251.25c-.53,1.81-2.19,9.48-2.22,9.68"/>
          <path class="cls-12" d="M86.06,250.47c-.05.21-.13.46-.22.78-1.08.37-5.87,2.22-10.35,6.87-.11-.87-.22-1.76-.34-2.67-1.34-9.95,8.36-7.06,11.22-6.11"/>
          <path class="cls-12" d="M86.08,251.17c-.04-.23-.03-.47-.02-.7t.01-.02c.03-.36.12-.74.3-1.11.48.16.77.26.79.25,0,0,10.61,4.25,9.99,13.24-.02.25-.04.5-.07.73"/>
          <path class="cls-12" d="M97.09,263.56c-.17,1.53-.53,2.96-1.04,4.28-3.91-5.13-10.73-14.78-10.2-16.59.16-.06.24-.08.24-.08.21,1.87,1.87,3.6,3.08,4.88,2.51,2.64,5.35,4.94,7.92,7.51Z"/>
          <path class="cls-12" d="M83.63,260.92h.02c.35-.11,8.58,1.89,12.4,6.91-.67,1.84-1.59,3.47-2.56,4.89"/>
          <path class="cls-12" d="M83.27,264.76l10.22,7.96c-2.31,3.34-4.9,5.39-5.21,5.71l-2.65,2.71"/>
          <path class="cls-12" d="M83.63,260.92c-.18,1.28-.32,2.58-.36,3.84,5.73,11.61,2.37,16.38,2.37,16.38l-8.27,8.49s.02-.22.04-.66c.08-1.61.24-6.22-.28-14.17-.18-2.74-.44-5.89-.8-9.45l7.3-4.43Z"/>
          <line class="cls-12" x1="93.51" y1="272.73" x2="93.49" y2="272.72"/>
          <line class="cls-12" x1="96.05" y1="267.84" x2="96.05" y2="267.84"/>
          <polyline class="cls-12" points="77.32 274.79 82.99 268.04 83.27 264.76"/>
        </g>
      </g>
      <polygon class="cls-14" points="81.72 276.73 83.35 282.89 77.28 289.9 81.72 276.73"/>
    </g>
    <g>
      <g>
        <g>
          <path class="cls-2" d="M67.36,212.53c-.29-.22-.55-.51-.76-.86.4-.31.64-.5.64-.52,0,0,9.39-6.52,16.55-1.05.2.15.39.3.57.46-3.56.73-7.05,1.84-10.63,2.48-1.73.31-4.09.74-5.77-.11-.22-.1-.41-.23-.6-.37t0-.02Z"/>
          <path class="cls-1" d="M84.37,210.55c1.18.98,2.18,2.07,3,3.22-6.43.44-18.25.82-19.47-.61.04-.16.07-.24.07-.24,1.67.85,4.04.42,5.77.11,3.58-.64,7.07-1.75,10.63-2.48Z"/>
          <path class="cls-2" d="M66.6,211.67c.21.35.48.64.76.86t0,.02c.15.16.31.37.53.61-.28,1.11-1.38,6.12.04,12.43-.78-.39-1.59-.78-2.42-1.18-9.05-4.36-1.29-10.87,1.07-12.74Z"/>
          <path class="cls-2" d="M74.76,220.32v.02c-.15-.13-5.64-5.75-6.86-7.18,1.22,1.43,13.03,1.05,19.47.61-6.3.42-12.5,6.2-12.61,6.54Z"/>
          <path class="cls-1" d="M67.9,213.16c1.22,1.43,6.71,7.05,6.86,7.18l-.32,8.53c-2-1.03-4.15-2.13-6.5-3.28-1.42-6.3-.33-11.32-.04-12.43Z"/>
          <path class="cls-1" d="M87.37,213.77c1.17,1.57,2.02,3.24,2.67,4.82l-12.27,4.15c-1.03-.72-2.04-1.55-3.01-2.41v-.02c.11-.35,6.31-6.12,12.61-6.54Z"/>
          <path class="cls-2" d="M77.77,222.75l12.27-4.15c1.51,3.77,1.81,7.06,1.91,7.49l.8,3.7s-2.14-5.44-14.98-7.04Z"/>
          <path class="cls-2" d="M74.76,220.34c.97.86,1.98,1.69,3.01,2.41l2.59,2.04,2.51,8.45-.1.16c-2.39-1.36-5.16-2.87-8.33-4.53l.32-8.53Z"/>
          <path class="cls-1" d="M80.36,224.79l-2.59-2.04c12.84,1.6,14.98,7.04,14.98,7.04l2.54,11.58s-.17-.14-.53-.4c-1.85-4.1-8.27-11.61-14.4-16.18Z"/>
          <path class="cls-1" d="M82.86,233.24l-2.51-8.45c6.13,4.57,12.55,12.08,14.4,16.18-1.3-.95-5.06-3.62-11.99-7.57l.1-.16Z"/>
        </g>
        <g>
          <path class="cls-12" d="M67.03,212.21c-.03-.09.09.04.34.32"/>
          <path class="cls-12" d="M94.75,240.97c-1.85-4.1-8.27-11.61-14.4-16.18"/>
          <line class="cls-12" x1="74.79" y1="219.86" x2="74.76" y2="220.32"/>
          <path class="cls-12" d="M74.44,228.87c-2-1.03-4.15-2.13-6.5-3.28"/>
          <path class="cls-12" d="M67.9,213.16c1.22,1.43,6.71,7.05,6.86,7.18"/>
          <path class="cls-12" d="M67.37,212.55c.15.16.31.37.53.61-.28,1.11-1.38,6.12.04,12.43-.78-.39-1.59-.78-2.42-1.18-9.05-4.36-1.29-10.87,1.07-12.74"/>
          <path class="cls-12" d="M67.97,212.92c-.22-.1-.41-.23-.6-.37t0-.02c-.29-.22-.55-.51-.76-.86.4-.31.64-.5.64-.52,0,0,9.39-6.52,16.55-1.05.2.15.39.3.57.46"/>
          <path class="cls-12" d="M84.37,210.55c1.18.98,2.18,2.07,3,3.22-6.43.44-18.25.82-19.47-.61.04-.16.07-.24.07-.24,1.67.85,4.04.42,5.77.11,3.58-.64,7.07-1.75,10.63-2.48Z"/>
          <path class="cls-12" d="M74.76,220.34v-.02c.11-.35,6.31-6.12,12.61-6.54,1.17,1.57,2.02,3.24,2.67,4.82"/>
          <path class="cls-12" d="M77.77,222.75l12.27-4.15c1.51,3.77,1.81,7.06,1.91,7.49l.8,3.7"/>
          <path class="cls-12" d="M74.76,220.34c.97.86,1.98,1.69,3.01,2.41,12.84,1.6,14.98,7.04,14.98,7.04l2.54,11.58s-.17-.14-.53-.4c-1.3-.95-5.06-3.62-11.99-7.57-2.39-1.36-5.16-2.87-8.33-4.53l.32-8.53Z"/>
          <line class="cls-12" x1="90.06" y1="218.59" x2="90.04" y2="218.6"/>
          <line class="cls-12" x1="87.38" y1="213.78" x2="87.37" y2="213.77"/>
          <polyline class="cls-12" points="82.86 233.24 80.36 224.79 77.77 222.75"/>
        </g>
      </g>
      <polygon class="cls-14" points="86.91 230.63 92.95 232.66 95.46 241.59 86.91 230.63"/>
    </g>
  </g>
</svg>