<?xml version="1.0" encoding="utf-8"?>
<!-- Generator: Adobe Illustrator 27.9.1, SVG Export Plug-In . SVG Version: 6.00 Build 0)  -->
<svg version="1.1" id="Layer_1" xmlns="http://www.w3.org/2000/svg" xmlns:xlink="http://www.w3.org/1999/xlink" x="0px" y="0px"
	 viewBox="0 0 612 792" style="enable-background:new 0 0 612 792;" xml:space="preserve">
<style type="text/css">
	.st0{fill:none;stroke:#000000;stroke-miterlimit:10;stroke-dasharray:4;}
	.st1{fill:#FBDDEA;stroke:#000000;stroke-width:3;stroke-miterlimit:10;}
	.st2{fill:#FFFFFF;stroke:#000000;stroke-miterlimit:10;stroke-dasharray:4;}
	.st3{clip-path:url(#XMLID_00000062155484301524685430000011078566373873995194_);}
	.st4{opacity:0.7;clip-path:url(#SVGID_00000127014594589728462100000010750195249573375401_);fill:#EE294E;}
	.st5{opacity:0.7;clip-path:url(#SVGID_00000034071253659711446930000000354193591747513503_);fill:#EE294E;}
	
		.st6{clip-path:url(#XMLID_00000062155484301524685430000011078566373873995194_);fill:#00A79D;stroke:#000000;stroke-miterlimit:10;}
	
		.st7{clip-path:url(#SVGID_00000111881113174254002070000007842284302723095734_);fill:url(#SVGID_00000152981833273055932220000013243881068799192200_);stroke:#000000;stroke-miterlimit:10;}
	
		.st8{clip-path:url(#SVGID_00000048496613859229923690000008266474050269240726_);fill:url(#SVGID_00000117663803350798037340000015143035655155351433_);stroke:#000000;stroke-miterlimit:10;}
	.st9{clip-path:url(#SVGID_00000121265470526194851960000017467722430785510544_);}
	.st10{fill:#EE294E;}
	.st11{fill:none;stroke:#60ADCC;stroke-width:3;stroke-miterlimit:10;}
	.st12{clip-path:url(#SVGID_00000026131239140832193750000014972889681795016079_);}
	.st13{stroke:#000000;stroke-miterlimit:10;}
	.st14{fill:none;stroke:#000000;stroke-width:3;stroke-miterlimit:10;}
	.st15{clip-path:url(#XMLID_00000062155484301524685430000011078566373873995194_);fill:none;stroke:#000000;stroke-miterlimit:10;}
	.st16{clip-path:url(#SVGID_00000059272395812575743200000012176583059709303682_);}
	.st17{fill:#F15623;stroke:#000000;stroke-width:2;stroke-miterlimit:10;}
	.st18{clip-path:url(#SVGID_00000101781650148718057230000002865808791654892475_);}
	.st19{clip-path:url(#SVGID_00000016783158419658400120000012321767802640521381_);fill:#71C491;}
	.st20{clip-path:url(#SVGID_00000102509354433671121420000000826611133073400981_);fill:#71C491;}
	.st21{clip-path:url(#SVGID_00000140000106517151913820000014088443786877879710_);fill:#71C491;}
	.st22{clip-path:url(#SVGID_00000130605463155058520440000007218440401636841633_);fill:#71C491;}
	
		.st23{clip-path:url(#XMLID_00000062155484301524685430000011078566373873995194_);fill:none;stroke:#F26522;stroke-width:3;stroke-miterlimit:10;}
	.st24{clip-path:url(#SVGID_00000044173802932815670230000007440890623297201083_);}
	.st25{fill:#71C491;}
	.st26{fill:#00A79D;}
	.st27{fill:#F15623;}
	.st28{clip-path:url(#SVGID_00000181802026584136741910000000136357635916394147_);}
	.st29{clip-path:url(#SVGID_00000080886174178933882600000012806621171057026438_);fill:#A8509F;}
	.st30{clip-path:url(#SVGID_00000005972159590056542630000013373659571226163090_);fill:#A8509F;}
	
		.st31{clip-path:url(#SVGID_00000154409871127354139140000012163399148283577501_);fill:#E7529D;stroke:#000000;stroke-miterlimit:10;}
	
		.st32{clip-path:url(#SVGID_00000047039830615244113170000013991973550577224893_);fill:#E7529D;stroke:#000000;stroke-miterlimit:10;}
	.st33{fill:#E7529D;}
	.st34{fill:none;stroke:#000000;stroke-width:0.25;stroke-miterlimit:10;}
	.st35{fill:#A8509F;}
	.st36{fill:#662D91;}
	.st37{opacity:0.7;clip-path:url(#SVGID_00000083774311182151522300000008228722840108839047_);fill:#EE294E;}
	.st38{opacity:0.7;clip-path:url(#SVGID_00000012454060992003734290000014358976766549247147_);fill:#EE294E;}
	.st39{clip-path:url(#SVGID_00000080918566943751171960000002584706818506074254_);fill:#EE294E;}
	.st40{clip-path:url(#SVGID_00000062167933227274291630000009378662734018730120_);fill:#EE294E;}
	.st41{fill:none;stroke:#000000;stroke-miterlimit:10;}
	.st42{fill:#FFFFFF;}
	
		.st43{clip-path:url(#SVGID_00000158027077425259332360000000822952501026684342_);fill:url(#SVGID_00000150096422229831927480000002790806934435591582_);stroke:#000000;stroke-miterlimit:10;}
	
		.st44{clip-path:url(#SVGID_00000027602034887787686210000009643060972209095302_);fill:url(#SVGID_00000064351984951714730650000008283375024629101473_);stroke:#000000;stroke-miterlimit:10;}
	.st45{fill:url(#SVGID_00000066508862471452755440000000235380147603790267_);stroke:#000000;stroke-miterlimit:10;}
	.st46{fill:none;stroke:#000000;stroke-width:2;stroke-miterlimit:10;}
	.st47{fill:#FFFFFF;stroke:#000000;stroke-width:2;stroke-miterlimit:10;}
	.st48{fill:#00A79D;stroke:#000000;stroke-miterlimit:10;}
	.st49{fill:none;}
	.st50{font-family:'CharlemagneStd-Bold';}
	.st51{font-size:18px;}
	.st52{font-family:'MyriadPro-Bold';}
	.st53{font-size:12px;}
	.st54{fill:none;stroke:#6DCFF6;stroke-width:2;stroke-miterlimit:10;}
	.st55{font-size:14px;}
	.st56{fill:#FFFFFF;stroke:#000000;stroke-miterlimit:10;}
	.st57{fill:none;stroke:#F26522;stroke-width:3;stroke-miterlimit:10;}
</style>
<g>
	<g>
		<g id="_x3C_Mirror_Repeat_x3E__00000078760016776202361730000012201996426625491851_">
			<g>
				<defs>
					<rect id="SVGID_00000027577592142551344800000011124005012447113402_" x="27.97" y="161" width="120.54" height="34.06"/>
				</defs>
				<clipPath id="SVGID_00000096762865395146345830000001671446327596234921_">
					<use xlink:href="#SVGID_00000027577592142551344800000011124005012447113402_"  style="overflow:visible;"/>
				</clipPath>
				
					<linearGradient id="SVGID_00000150819613017692370000000010188989699358642086_" gradientUnits="userSpaceOnUse" x1="28.4723" y1="178.0356" x2="148.0169" y2="178.0356">
					<stop  offset="0" style="stop-color:#FFF33B"/>
					<stop  offset="0.0595" style="stop-color:#FFE029"/>
					<stop  offset="0.1303" style="stop-color:#FFD217"/>
					<stop  offset="0.2032" style="stop-color:#FEC90E"/>
					<stop  offset="0.2809" style="stop-color:#FDC70C"/>
					<stop  offset="0.6685" style="stop-color:#F3903F"/>
					<stop  offset="0.8876" style="stop-color:#ED683C"/>
					<stop  offset="1" style="stop-color:#E93E3A"/>
				</linearGradient>
				
					<polygon style="clip-path:url(#SVGID_00000096762865395146345830000001671446327596234921_);fill:url(#SVGID_00000150819613017692370000000010188989699358642086_);stroke:#000000;stroke-miterlimit:10;" points="
					148.02,194.57 148.02,175.04 116.14,175.04 116.14,161.5 28.47,161.5 28.47,183.87 84.87,183.87 84.87,194.57 				"/>
			</g>
		</g>
		<g id="_x3C_Mirror_Repeat_x3E__00000181776664015648060750000007057762431502772390_">
			<g>
				<defs>
					<rect id="SVGID_00000173122795280619783930000003031251901994123960_" x="172.05" y="161" width="120.54" height="34.06"/>
				</defs>
				<clipPath id="SVGID_00000072243309600878607400000010050469732942119843_">
					<use xlink:href="#SVGID_00000173122795280619783930000003031251901994123960_"  style="overflow:visible;"/>
				</clipPath>
				
					<linearGradient id="SVGID_00000170966405586303469440000008568869496513999530_" gradientUnits="userSpaceOnUse" x1="28.4723" y1="178.0356" x2="148.0169" y2="178.0356" gradientTransform="matrix(-1 0 0 1 320.5706 0)">
					<stop  offset="0" style="stop-color:#FFF33B"/>
					<stop  offset="0.0595" style="stop-color:#FFE029"/>
					<stop  offset="0.1303" style="stop-color:#FFD217"/>
					<stop  offset="0.2032" style="stop-color:#FEC90E"/>
					<stop  offset="0.2809" style="stop-color:#FDC70C"/>
					<stop  offset="0.6685" style="stop-color:#F3903F"/>
					<stop  offset="0.8876" style="stop-color:#ED683C"/>
					<stop  offset="1" style="stop-color:#E93E3A"/>
				</linearGradient>
				
					<polygon style="clip-path:url(#SVGID_00000072243309600878607400000010050469732942119843_);fill:url(#SVGID_00000170966405586303469440000008568869496513999530_);stroke:#000000;stroke-miterlimit:10;" points="
					172.55,194.57 172.55,175.04 204.43,175.04 204.43,161.5 292.1,161.5 292.1,183.87 235.7,183.87 235.7,194.57 				"/>
			</g>
		</g>
	</g>
	
		<linearGradient id="SVGID_00000095318958432068229320000001029979911819888274_" gradientUnits="userSpaceOnUse" x1="20.4883" y1="93.4643" x2="152.8018" y2="93.4643">
		<stop  offset="0" style="stop-color:#FFF33B"/>
		<stop  offset="0.0595" style="stop-color:#FFE029"/>
		<stop  offset="0.1303" style="stop-color:#FFD217"/>
		<stop  offset="0.2032" style="stop-color:#FEC90E"/>
		<stop  offset="0.2809" style="stop-color:#FDC70C"/>
		<stop  offset="0.6685" style="stop-color:#F3903F"/>
		<stop  offset="0.8876" style="stop-color:#ED683C"/>
		<stop  offset="1" style="stop-color:#E93E3A"/>
	</linearGradient>
	
		<polygon style="fill:url(#SVGID_00000095318958432068229320000001029979911819888274_);stroke:#000000;stroke-miterlimit:10;" points="
		20.49,148.97 20.49,83.4 55.77,83.4 55.77,37.96 152.8,37.96 152.8,113.05 90.38,113.05 90.38,148.97 	"/>
	<g>
		<g>
			<path class="st42" d="M576.21,84.35c20.28,7.9,20.45,16.91-0.26,17.88c12.16,15.57,4.47,21.14-14.91,11.49
				c8.63,18.72,1.93,25.3-13.73,12.68c-3,19.04-12.76,18.13-19.42-1.28c-7.93,19.05-17.73,19.49-19.46,0.34
				c-16.53,11.84-22.84,4.95-12.98-13.33c-20.08,8.7-27.44,2.75-14.23-12.2c-20.79-1.98-20.11-10.96,0.76-17.87
				c-20.96-6.51-21.75-15.48-0.99-17.86c-12.69-16.27-3.16-22.88,17.57-12.96c-9.2-19.66-1.22-27.82,15.54-14.99
				c4.14-18.65,13.81-17.16,19.29,2.42c9.06-18.37,18.86-18.23,19.45,0.81c17.14-10.66,22.96-3.42,12.02,14.06
				c20.46-7.32,27.4-0.95,13.36,13.01C598.65,69.94,597.34,78.86,576.21,84.35z"/>
			<path class="st46" d="M576.21,84.35c20.28,7.9,20.45,16.91-0.26,17.88c12.16,15.57,4.47,21.14-14.91,11.49
				c8.63,18.72,1.93,25.3-13.73,12.68c-3,19.04-12.76,18.13-19.42-1.28c-7.93,19.05-17.73,19.49-19.46,0.34
				c-16.53,11.84-22.84,4.95-12.98-13.33c-20.08,8.7-27.44,2.75-14.23-12.2c-20.79-1.98-20.11-10.96,0.76-17.87
				c-20.96-6.51-21.75-15.48-0.99-17.86c-12.69-16.27-3.16-22.88,17.57-12.96c-9.2-19.66-1.22-27.82,15.54-14.99
				c4.14-18.65,13.81-17.16,19.29,2.42c9.06-18.37,18.86-18.23,19.45,0.81c17.14-10.66,22.96-3.42,12.02,14.06
				c20.46-7.32,27.4-0.95,13.36,13.01C598.65,69.94,597.34,78.86,576.21,84.35z"/>
		</g>
		<ellipse class="st47" cx="529.39" cy="81.56" rx="24.26" ry="22.14"/>
	</g>
	<g>
		<path class="st42" d="M434.45,103.04c14.43,5.04,14.55,10.79-0.18,11.41c8.65,9.93,3.18,13.49-10.61,7.33
			c6.14,11.95,1.37,16.14-9.77,8.09c-2.14,12.15-9.08,11.57-13.82-0.81c-5.64,12.16-12.61,12.44-13.85,0.21
			c-11.76,7.56-16.25,3.16-9.24-8.5c-14.29,5.55-19.53,1.76-10.13-7.78c-14.8-1.26-14.31-7,0.54-11.4
			c-14.91-4.15-15.48-9.88-0.7-11.4c-9.03-10.38-2.25-14.6,12.51-8.27c-6.54-12.55-0.87-17.75,11.06-9.57
			c2.95-11.9,9.83-10.95,13.72,1.54c6.45-11.72,13.42-11.63,13.84,0.52c12.19-6.8,16.34-2.18,8.56,8.98
			c14.56-4.67,19.49-0.61,9.5,8.3C450.42,93.84,449.49,99.54,434.45,103.04z"/>
		<path class="st46" d="M434.45,103.04c14.43,5.04,14.55,10.79-0.18,11.41c8.65,9.93,3.18,13.49-10.61,7.33
			c6.14,11.95,1.37,16.14-9.77,8.09c-2.14,12.15-9.08,11.57-13.82-0.81c-5.64,12.16-12.61,12.44-13.85,0.21
			c-11.76,7.56-16.25,3.16-9.24-8.5c-14.29,5.55-19.53,1.76-10.13-7.78c-14.8-1.26-14.31-7,0.54-11.4
			c-14.91-4.15-15.48-9.88-0.7-11.4c-9.03-10.38-2.25-14.6,12.51-8.27c-6.54-12.55-0.87-17.75,11.06-9.57
			c2.95-11.9,9.83-10.95,13.72,1.54c6.45-11.72,13.42-11.63,13.84,0.52c12.19-6.8,16.34-2.18,8.56,8.98
			c14.56-4.67,19.49-0.61,9.5,8.3C450.42,93.84,449.49,99.54,434.45,103.04z"/>
	</g>
	<ellipse class="st47" cx="359.17" cy="46.81" rx="20.49" ry="19.7"/>
	<polygon class="st48" points="163.35,227.05 137.54,270.3 180.15,289.69 133.48,303.35 148.34,349.21 108.15,325.29 86.57,370.75 
		76.41,323.25 31.01,341.69 56.83,298.44 14.22,279.05 60.89,265.38 46.03,219.52 86.21,243.45 107.8,197.99 117.96,245.48 	"/>
	<rect x="105.72" y="136.01" class="st49" width="109.14" height="15.1"/>
	<text transform="matrix(1 0 0 1 105.7157 148.6773)" class="st50 st51">eyebrows</text>
	<rect x="418.41" y="43.47" class="st49" width="54.05" height="13.41"/>
	<text transform="matrix(1 0 0 1 418.4053 56.146)" class="st50 st51">eyes</text>
	<rect x="152.8" y="255.56" class="st49" width="162.05" height="21.44"/>
	<text transform="matrix(1 0 0 1 152.8018 268.2357)" class="st50 st51">Star - 8 points</text>
	<rect x="53.69" y="503.76" class="st49" width="399.73" height="15.89"/>
	<text transform="matrix(1 0 0 1 53.6934 516.4359)" class="st50 st51">Nostril -  Pen tool, Selection tool</text>
	<rect x="142.61" y="431.35" class="st49" width="241.8" height="39.76"/>
	<text transform="matrix(1 0 0 1 142.6131 444.0214)"><tspan x="0" y="0" class="st50 st51">tooth - width tool</tspan><tspan x="0" y="21.6" class="st50 st51"> </tspan></text>
	<rect x="119.78" y="707.39" class="st49" width="110.06" height="20.53"/>
	<text transform="matrix(1 0 0 1 119.7815 720.0598)" class="st50 st51">pen tool </text>
	<rect x="390.4" y="681.33" class="st49" width="138.99" height="18.86"/>
	<text transform="matrix(1 0 0 1 390.3984 693.998)" class="st50 st51">twirl tool </text>
	<rect x="433.68" y="162.41" class="st49" width="154.69" height="83.65"/>
	<text transform="matrix(1 0 0 1 433.6779 175.0798)"><tspan x="0" y="0" class="st50 st51">Minus front</tspan><tspan x="0" y="14.4" class="st52 st53">I dont know why the shape </tspan><tspan x="0" y="28.8" class="st52 st53">changed from a circle to a </tspan><tspan x="0" y="43.2" class="st52 st53">circle with 4 points...?</tspan></text>
	<g>
		<path d="M415.87,190.24c1.89,18.01-4.76,38.26-21.61,47.77c-25.66,14.39-56.5-3.02-61.86-30.68c-7.1-32.83,22.45-67.99,56.1-53.47
			C403.15,159.94,414.41,174.14,415.87,190.24L415.87,190.24z M393.68,190.24c2.68-13.83-3.33-31.05-19.81-30.71
			c-15.18,0.83-23.47,17.02-19.81,30.71c2.61,9.81,10.21,18.34,19.81,17.52C383.45,206.82,391.96,200.44,393.68,190.24
			L393.68,190.24z"/>
	</g>
	<g>
		<path class="st10" d="M587.2,284.59c14.64-13.64,7.41-19.86-13.93-12.71c11.4-17.08,5.33-24.16-12.54-13.74
			c-0.61-18.6-10.83-18.73-20.28-0.79c-5.71-19.12-15.79-20.58-20.11-2.36c-17.48-12.53-25.79-4.56-16.2,14.65
			c-21.62-9.69-31.55-3.23-18.33,12.66c-21.65,2.33-20.82,11.1,1.03,17.45c-21.77,6.75-22.48,15.52-0.8,17.46
			c-13.77,14.61-6.09,20.41,14.84,11.92c-10.29,17.85-3.7,24.58,13.53,13.02c1.81,18.71,12.02,18.28,20.3-0.33
			c6.94,18.95,17.11,19.84,20.25,1.25c16.33,12.32,23.31,5.9,14.31-12.39c20.21,9.43,28.23,3.98,15.55-11.23
			c21.59-0.95,21.42-9.75,0.27-17.47C607.14,296.61,608.5,287.89,587.2,284.59z M536.28,320.53c-16.76,7.51-30.35-5.38-22.43-21.29
			c-7.92-15.91,5.67-28.8,22.43-21.29c16.76-7.51,30.35,5.38,22.43,21.29C566.63,315.15,553.04,328.05,536.28,320.53z"/>
		<path class="st54" d="M587.2,284.59c14.64-13.64,7.41-19.86-13.93-12.71c11.4-17.08,5.33-24.16-12.54-13.74
			c-0.61-18.6-10.83-18.73-20.28-0.79c-5.71-19.12-15.79-20.58-20.11-2.36c-17.48-12.53-25.79-4.56-16.2,14.65
			c-21.62-9.69-31.55-3.23-18.33,12.66c-21.65,2.33-20.82,11.1,1.03,17.45c-21.77,6.75-22.48,15.52-0.8,17.46
			c-13.77,14.61-6.09,20.41,14.84,11.92c-10.29,17.85-3.7,24.58,13.53,13.02c1.81,18.71,12.02,18.28,20.3-0.33
			c6.94,18.95,17.11,19.84,20.25,1.25c16.33,12.32,23.31,5.9,14.31-12.39c20.21,9.43,28.23,3.98,15.55-11.23
			c21.59-0.95,21.42-9.75,0.27-17.47C607.14,296.61,608.5,287.89,587.2,284.59z M536.28,320.53c-16.76,7.51-30.35-5.38-22.43-21.29
			c-7.92-15.91,5.67-28.8,22.43-21.29c16.76-7.51,30.35,5.38,22.43,21.29C566.63,315.15,553.04,328.05,536.28,320.53z"/>
	</g>
	<circle class="st0" cx="428.93" cy="274.2" r="33.13"/>
	<text transform="matrix(1.0566 0 0 1 160.2854 122.597)" class="st52 st55">Unite - Compound shape</text>
	<g>
		<path class="st42" d="M107.66,482.66H66.37c-4.48,0-8.15-3.67-8.15-8.15v-32.63c0-15.84,12.96-28.8,28.8-28.8h0
			c15.84,0,28.8,12.96,28.8,28.8v32.63C115.81,478.99,112.14,482.66,107.66,482.66z"/>
		<path d="M107.66,483.6c-9.27-0.63-18.54-0.73-27.81-0.15c0,0-13.99,0.72-13.99,0.72c-4.26,0.07-8.34-3.07-9.53-7.24
			c-0.43-1.12-0.42-2.78-0.55-3.97c-0.64-9.27-1.35-18.54-1.94-27.81c-0.42-4.51-0.34-9.19,0.88-13.59
			c7.91-27.86,45-33.57,60.57-8.89c2.48,4.09,4.14,8.69,4.62,13.45c0.39,2.99,0.14,6.5-0.14,9.47c0,0-1.14,13.91-1.14,13.91
			c-0.4,4.64-0.7,9.27-1.05,13.91c-0.07,1.05-0.15,2.62-0.64,3.89C115.64,481.11,111.64,483.86,107.66,483.6L107.66,483.6z
			 M107.66,481.71c4.26-0.27,7.15-4.14,6.37-8.32c-0.35-4.64-0.65-9.27-1.05-13.91l-1.14-13.91c-0.2-2.79-0.45-5.89-1.23-8.57
			c-1.55-4.81-4.28-9.04-8.23-12.22c-12.6-10.52-31.91-5.42-37.9,9.9c-0.88,2.22-1.39,4.63-1.64,7.01
			c-0.7,10.4-1.44,20.85-2.18,31.26c0,0-0.11,1.68-0.11,1.68c-0.29,3.32,2.5,6.28,5.84,6.5c1.75,0.11,4.74,0.29,6.52,0.38
			c6.74,0.28,14.15,0.81,20.86,0.76C98.39,482.25,103.03,481.93,107.66,481.71L107.66,481.71z"/>
	</g>
	<g>
		<path class="st13" d="M398.51,598.04c2.97-26.82,27.98-63.17,27.98-63.17l-2.03,60.32c-0.3,8.96-6.16,17.05-12.59,17.44
			c-1.87,0.12-3.71,0.03-5.39-0.14C401.16,611.94,397.66,605.72,398.51,598.04z"/>
		<path class="st13" d="M459.3,597.76c-3.45-26.77-29.1-62.74-29.1-62.74l3.1,60.28c0.46,8.96,6.46,16.95,12.9,17.25
			c1.88,0.09,3.71-0.02,5.38-0.22C456.9,611.7,460.28,605.42,459.3,597.76z"/>
	</g>
	<path class="st13" d="M515.87,551.57c6.76-36.89-28-92.48-28-92.48l-24.93,81.74c-3.7,12.15,4.64,24.58,17.91,26.83
		c3.87,0.65,7.76,1.03,11.34,1.25C503.61,569.58,513.93,562.14,515.87,551.57z"/>
	<path class="st56" d="M525.45,463.96c-27.91,32.94,20.16,109.82,20.16,109.82l29.8-97.74
		C564.67,461.03,525.45,463.96,525.45,463.96z"/>
	<g>
		<path class="st17" d="M72.64,643.23c-18.26-13.02-40.52-6.13-32.42,10.34s39.84,32.55,39.84,32.55s18.75-25.7,18.77-25.72
			c5.94-8.14,13.31-22.87,1.36-29.73c-7.54-4.33-19.26,1.29-23.6,7.19C76.58,637.87,72.64,643.23,72.64,643.23z"/>
	</g>
	<path class="st25" d="M148.19,668.67c-16.83,26.95-86.12,43.7-86.12,43.7s14.87-11.13,14.88-11.13
		c8.23-6.16,17.6-13.65,24.46-21.66c6.8-7.94,9.4-17.99,13.12-27.55c4.77-9.53,16-13.88,24.2-9.42c2.39,1.3,4.64,2.79,6.63,4.25
		C151.71,651.52,153.01,660.96,148.19,668.67z"/>
	<path class="st35" d="M342.2,702.79c7.88-6.3,12.2-18.79,13.27-28.44c0.23-2.08,0.31-4.27-0.53-6.19
		c-0.98-2.21-3.21-3.81-5.62-4.02c-1.08-0.09-2.17,0.09-3.17,0.51c-0.83,0.34-2.35,2.22-2.99,2.29c-0.75,0.08-2.23-1.52-2.95-1.9
		c-1.2-0.62-2.52-1.03-3.89-0.84c-1.79,0.24-3.36,1.47-4.31,3.01c-0.95,1.54-1.35,3.37-1.48,5.17c-0.34,4.59,0.96,9.18,3.03,13.28
		c2.07,4.1,7.61,7.78,10.51,11.34c-3.56-3.31-9.86-6.65-12.75-10.56c-2.89-3.91-5.08-8.47-5.5-13.31c-0.33-3.86,0.6-7.98,3.24-10.81
		c2-2.13,4.8-3.37,7.64-4.04c8.45-2,17.81,0.78,23.96,6.91s8.98,15.34,7.54,23.91c-2.81,16.82-20.93,28.31-37.39,24.87
		c-5.27-1.1-10.21-3.6-14.16-7.27c-14-13-7.52-36.43,4.94-48.85c-10,16-11.57,29.87,4.94,42.89
		C329.17,702.83,336.08,707.69,342.2,702.79z"/>
	<path class="st57" d="M505.94,718.99c0-16.09,1.51,44.85-20.41,45.87c-8.44,0.49-16-5.84-22.19-10.76
		c-7.1-5.65-16.09-15.74-25.92-10.68c-8.75,4.5-15.46,12.13-23.84,17.22c-3.87,2.35-8.28,4.31-12.91,4.04
		c-21.92-1.03-20.41-61.96-20.41-45.87"/>
</g>
</svg>
