<svg width="513" height="372" viewBox="0 0 513 372" fill="none" xmlns="http://www.w3.org/2000/svg">
<path d="M21 67C136 -91 165 83 280 67C342 50.6667 444 37.4 480 95C480 95 569 379 452 359C244 289 87.5271 388.822 35 369C-18 349 0.620255 95 21 67Z" fill="#ED5279" fill-opacity="0.54"/>
<g filter="url(#filter0_d_0_1)">
<path d="M372.664 261.6C372.664 248.253 379.617 237.94 393.524 230.66C407.524 223.38 427.264 219.74 452.744 219.74C467.21 219.74 477.804 221.933 484.524 226.32C491.244 230.707 494.604 236.68 494.604 244.24C494.604 250.587 492.41 256.28 488.024 261.32C483.73 266.36 477.664 270.093 469.824 272.52C486.997 274.48 495.584 280.5 495.584 290.58C495.584 295.807 493.717 300.193 489.984 303.74C486.344 307.193 481.49 309.667 475.424 311.16C465.157 313.68 454.61 314.94 443.784 314.94V312.14C445.93 312.327 447.984 312.42 449.944 312.42C459.277 312.42 466.324 310.787 471.084 307.52C476.87 303.507 479.764 298.233 479.764 291.7C479.764 287.967 478.597 284.653 476.264 281.76C474.024 278.773 471.784 276.72 469.544 275.6L466.044 273.92C463.057 274.573 459.697 274.9 455.964 274.9V272.1C464.924 272.1 473.09 269.533 480.464 264.4C487.837 259.267 491.524 252.547 491.524 244.24C491.524 237.333 488.257 232.013 481.724 228.28C475.284 224.453 466.044 222.493 454.004 222.4C448.87 257.12 444.95 281.013 442.244 294.08C440.377 304.16 435.71 312.047 428.244 317.74C420.777 323.527 412.797 326.42 404.304 326.42V323.76C407.944 323.48 410.604 323.06 412.284 322.5C414.057 322.033 415.55 320.96 416.764 319.28C417.977 317.693 418.864 315.78 419.424 313.54C420.45 308.967 421.244 304.627 421.804 300.52L435.244 223.1C416.11 224.687 401.317 228.84 390.864 235.56C380.504 242.187 375.324 250.867 375.324 261.6C375.324 266.453 377.004 270.56 380.364 273.92C382.697 276.16 385.777 277.887 389.604 279.1C393.43 280.22 396.557 280.873 398.984 281.06C401.504 281.153 402.857 281.107 403.044 280.92V283.86C392.03 283.86 383.864 281.247 378.544 276.02C374.624 272.38 372.664 267.573 372.664 261.6Z" fill="#990139"/>
<path d="M344.636 303.18C342.676 301.22 341.696 298.84 341.696 296.04C341.696 293.24 342.676 290.86 344.636 288.9C346.596 286.847 348.976 285.82 351.776 285.82C354.576 285.82 356.956 286.847 358.916 288.9C360.97 290.86 361.996 293.24 361.996 296.04C361.996 298.84 360.97 301.22 358.916 303.18C356.956 305.14 354.576 306.12 351.776 306.12C348.976 306.12 346.596 305.14 344.636 303.18Z" fill="black"/>
<path d="M282.443 221.7C291.123 221.7 298.637 219.927 304.983 216.38L306.663 219.04C300.783 222.213 294.483 224.033 287.763 224.5C282.63 230.66 278.243 238.827 274.603 249C270.963 259.173 269.143 269.253 269.143 279.24C269.143 289.227 270.963 296.227 274.603 300.24C278.243 304.253 283.143 306.26 289.303 306.26C298.077 306.26 306.197 301.687 313.663 292.54C319.17 285.447 323.603 277.42 326.963 268.46C330.417 259.5 332.563 251.333 333.403 243.96C334.243 236.493 334.663 229.213 334.663 222.12C334.663 214.933 333.917 208.307 332.423 202.24L335.363 201.54C336.95 207.607 337.743 214.327 337.743 221.7C337.743 229.073 337.277 236.587 336.343 244.24C335.503 251.893 333.31 260.34 329.763 269.58C326.31 278.82 321.737 287.08 316.043 294.36C304.47 309.293 291.683 316.76 277.683 316.76C269.657 316.76 263.73 314.1 259.903 308.78C256.077 303.553 254.163 297.253 254.163 289.88C254.163 282.507 255.237 275.04 257.383 267.48C259.623 259.92 262.47 253.293 265.923 247.6C271.803 237.707 277.45 230.053 282.863 224.64C280.25 224.64 276.143 224.36 270.543 223.8L254.163 222.82C241.097 222.82 230.877 226.087 223.503 232.62C216.13 239.06 212.443 248.067 212.443 259.64C212.443 264.027 213.19 267.993 214.683 271.54C216.177 274.993 217.857 277.653 219.723 279.52C221.683 281.387 223.877 282.973 226.303 284.28C229.29 285.96 232.183 287.127 234.983 287.78L234.283 290.72C232.417 290.72 229.803 289.787 226.443 287.92C223.177 286.053 220.377 284.093 218.043 282.04C215.803 279.893 213.797 276.86 212.023 272.94C210.343 269.02 209.503 264.587 209.503 259.64C209.503 247.413 213.517 237.707 221.543 230.52C229.57 223.333 240.443 219.74 254.163 219.74C257.337 219.74 262.937 220.067 270.963 220.72C274.79 221.373 278.617 221.7 282.443 221.7Z" fill="black"/>
<path d="M178.523 303.18C176.563 301.22 175.583 298.84 175.583 296.04C175.583 293.24 176.563 290.86 178.523 288.9C180.483 286.847 182.863 285.82 185.663 285.82C188.463 285.82 190.843 286.847 192.803 288.9C194.856 290.86 195.883 293.24 195.883 296.04C195.883 298.84 194.856 301.22 192.803 303.18C190.843 305.14 188.463 306.12 185.663 306.12C182.863 306.12 180.483 305.14 178.523 303.18Z" fill="black"/>
<path d="M109.34 227.58C101.967 224.407 93.94 222.82 85.26 222.82C76.6733 222.82 69.6733 225.573 64.26 231.08C58.94 236.587 56.28 243.773 56.28 252.64H53.2C53.2 242.933 56.1867 235.047 62.16 228.98C68.1333 222.82 75.7867 219.74 85.12 219.74C92.5867 219.74 100.66 221.187 109.34 224.08C119.327 227.72 130.153 229.54 141.82 229.54V232.48C134.82 232.48 129.22 232.153 125.02 231.5C124.927 231.873 124.6 233.413 124.04 236.12C120.587 251.427 117.787 263.607 115.64 272.66H153.16L167.44 211.9H170.38L150.78 296.04C149.94 299.493 149.52 301.827 149.52 303.04C149.52 306.96 151.34 308.92 154.98 308.92C157.593 308.92 159.88 307.567 161.84 304.86L163.8 306.54C163.147 307.753 161.98 308.873 160.3 309.9C158.62 311.02 156.567 311.58 154.14 311.58C151.807 311.58 149.94 310.787 148.54 309.2C147.233 307.613 146.58 305.7 146.58 303.46L148.26 294.22L152.6 275.18H114.94C113.913 279.1 112.887 283.347 111.86 287.92C110.833 292.493 109.573 296.973 108.08 301.36C106.68 305.747 104.72 310.273 102.2 314.94C99.68 319.607 96.8333 323.387 93.66 326.28C90.58 329.267 86.66 331.693 81.9 333.56C77.2333 335.52 72.1467 336.5 66.64 336.5C61.2267 336.5 56.0933 335.473 51.24 333.42C46.3867 331.367 42.3267 328.52 39.06 324.88C33.46 318.44 30.66 310.647 30.66 301.5C30.66 300.007 30.7067 298.513 30.8 297.02L33.88 297.44C33.7867 298.747 33.74 300.053 33.74 301.36C33.74 310.04 36.3533 317.273 41.58 323.06C46.9 328.94 54.04 331.88 63 331.88C71.96 331.88 78.26 329.5 81.9 324.74C85.54 319.98 88.9933 310.833 92.26 297.3C95.62 283.767 101.313 260.527 109.34 227.58Z" fill="#990139"/>
<path d="M424.879 144.26C416.666 144.26 412.186 140.667 411.439 133.48C407.333 140.667 402.153 144.26 395.899 144.26C389.646 144.26 384.653 142.393 380.919 138.66C377.279 134.833 375.459 129.513 375.459 122.7C375.459 112.06 378.073 103.707 383.299 97.64C388.526 91.5733 395.293 88.54 403.599 88.54C410.413 88.54 414.939 91.76 417.179 98.2C417.646 95.4 418.159 92.6 418.719 89.8C425.626 89.8 430.759 89.52 434.119 88.96L435.939 88.54L426.279 141.46C429.079 141.18 431.413 139.873 433.279 137.54L435.379 139.22C432.579 142.58 429.079 144.26 424.879 144.26ZM391.279 129.84C391.279 134.04 391.793 136.98 392.819 138.66C393.939 140.247 395.619 141.04 397.859 141.04C400.099 141.04 402.386 139.827 404.719 137.4C407.799 134.227 410.273 130.213 412.139 125.36C412.419 124.147 412.933 121.253 413.679 116.68C414.519 112.013 415.219 108.187 415.779 105.2C415.499 101.653 414.519 98.5733 412.839 95.96C411.159 93.3467 409.059 92.04 406.539 92.04C401.966 92.04 398.279 96.1467 395.479 104.36C392.679 112.48 391.279 120.973 391.279 129.84Z" fill="black"/>
<path d="M367.453 139.22C364.653 142.58 361.153 144.26 356.953 144.26C352.753 144.26 349.44 143.187 347.013 141.04C344.68 138.893 343.513 136.093 343.513 132.64C343.513 131.427 344.26 126.34 345.753 117.38L350.373 92.32H344.493L344.773 89.8H350.793C357.7 89.8 362.786 89.52 366.053 88.96L368.013 88.54L358.353 141.46C361.153 141.18 363.486 139.873 365.353 137.54L367.453 139.22ZM355.133 75.1C353.173 73.14 352.193 70.76 352.193 67.96C352.193 65.16 353.173 62.78 355.133 60.82C357.093 58.7667 359.473 57.74 362.273 57.74C365.073 57.74 367.453 58.7667 369.413 60.82C371.466 62.78 372.493 65.16 372.493 67.96C372.493 70.76 371.466 73.14 369.413 75.1C367.453 77.06 365.073 78.04 362.273 78.04C359.473 78.04 357.093 77.06 355.133 75.1Z" fill="#990139"/>
<path d="M325.87 141.46C328.11 141.46 330.443 140.153 332.87 137.54L334.97 139.22C334.316 140.527 332.87 141.693 330.63 142.72C328.39 143.747 325.916 144.26 323.21 144.26C314.716 144.26 310.47 140.433 310.47 132.78C310.47 129.513 311.31 123.68 312.99 115.28C314.67 106.88 315.51 101.373 315.51 98.76C315.51 94.7467 313.596 92.74 309.77 92.74C306.69 92.74 303.703 94.7467 300.81 98.76C298.01 102.773 295.676 108.28 293.81 115.28L289.05 141.46C291.943 141.18 294.323 139.873 296.19 137.54L298.29 139.22C295.49 142.58 291.99 144.26 287.79 144.26C283.59 144.26 280.276 143.187 277.85 141.04C275.516 138.893 274.35 136.093 274.35 132.64C274.35 131.333 275.096 126.2 276.59 117.24L281.21 91.34C278.41 91.62 276.076 92.9267 274.21 95.26L272.11 93.58C274.91 90.22 278.41 88.54 282.61 88.54C286.903 88.54 290.216 89.6133 292.55 91.76C294.883 93.9067 296.05 96.94 296.05 100.86V101.7C299.876 92.9267 305.85 88.54 313.97 88.54C319.476 88.54 323.77 90.1267 326.85 93.3C329.93 96.38 331.47 100.673 331.47 106.18C331.47 109.073 330.583 114.673 328.81 122.98C327.036 131.193 326.056 137.353 325.87 141.46Z" fill="black"/>
<path d="M253.297 144.26C245.084 144.26 240.604 140.667 239.857 133.48C235.751 140.667 230.571 144.26 224.317 144.26C218.064 144.26 213.071 142.393 209.337 138.66C205.697 134.833 203.877 129.513 203.877 122.7C203.877 112.06 206.491 103.707 211.717 97.64C216.944 91.5733 223.711 88.54 232.017 88.54C238.831 88.54 243.357 91.76 245.597 98.2C246.064 95.4 246.577 92.6 247.137 89.8C254.044 89.8 259.177 89.52 262.537 88.96L264.357 88.54L254.697 141.46C257.497 141.18 259.831 139.873 261.697 137.54L263.797 139.22C260.997 142.58 257.497 144.26 253.297 144.26ZM219.697 129.84C219.697 134.04 220.211 136.98 221.237 138.66C222.357 140.247 224.037 141.04 226.277 141.04C228.517 141.04 230.804 139.827 233.137 137.4C236.217 134.227 238.691 130.213 240.557 125.36C240.837 124.147 241.351 121.253 242.097 116.68C242.937 112.013 243.637 108.187 244.197 105.2C243.917 101.653 242.937 98.5733 241.257 95.96C239.577 93.3467 237.477 92.04 234.957 92.04C230.384 92.04 226.697 96.1467 223.897 104.36C221.097 112.48 219.697 120.973 219.697 129.84Z" fill="#990139"/>
<path d="M188.155 141.46C190.395 141.46 192.728 140.153 195.155 137.54L197.255 139.22C196.601 140.527 195.155 141.693 192.915 142.72C190.675 143.747 188.201 144.26 185.495 144.26C177.001 144.26 172.755 140.433 172.755 132.78C172.755 129.513 173.595 123.68 175.275 115.28C176.955 106.88 177.795 101.373 177.795 98.76C177.795 94.7467 175.881 92.74 172.055 92.74C168.881 92.74 165.801 94.8867 162.815 99.18C159.921 103.473 157.541 109.307 155.675 116.68L151.055 143H134.255L149.795 55.08C146.995 55.36 144.661 56.6667 142.795 59L140.695 57.32C143.495 53.96 146.995 52.28 151.195 52.28C155.488 52.28 158.801 53.3533 161.135 55.5C163.468 57.6467 164.635 60.68 164.635 64.6C164.635 65.3467 164.541 66.56 164.355 68.24L158.475 101.42C162.301 92.8333 168.228 88.54 176.255 88.54C181.761 88.54 186.055 90.1267 189.135 93.3C192.215 96.38 193.755 100.673 193.755 106.18C193.755 109.073 192.868 114.673 191.095 122.98C189.321 131.193 188.341 137.353 188.155 141.46Z" fill="black"/>
<path d="M71.26 170.16C81.06 170.16 88.6667 168.153 94.08 164.14C99.5867 160.127 102.34 154.807 102.34 148.18C102.34 143.42 101.127 139.22 98.7 135.58C96.3667 131.94 93.4267 128.953 89.88 126.62C86.3333 124.193 82.6933 121.813 78.96 119.48C75.32 117.147 71.9133 114.207 68.74 110.66C65.5667 107.113 63.4667 103.1 62.44 98.62C53.9467 96.1 48.3467 90.8267 45.64 82.8C44.6133 79.72 44.1 76.5 44.1 73.14C44.1 69.78 44.6133 66.28 45.64 62.64C47.7867 55.4533 51.2867 50.04 56.14 46.4L57.68 48.64C53.2933 51.8133 50.12 56.76 48.16 63.48C47.2267 66.84 46.76 70.06 46.76 73.14C46.76 76.22 47.2267 79.16 48.16 81.96C50.4 88.7733 55.02 93.3467 62.02 95.68C61.8333 94.6533 61.74 93.0667 61.74 90.92C61.74 78.6933 66.1733 68.8 75.04 61.24C83.9067 53.68 94.7333 49.9 107.52 49.9C115.92 49.9 122.64 52.1867 127.68 56.76C131.973 60.7733 134.12 65.72 134.12 71.6C134.12 77.3867 132.16 82.4267 128.24 86.72C124.32 90.92 119.047 93.02 112.42 93.02C108.78 93.02 105.793 92.32 103.46 90.92C98.7 94.56 93.0533 97.1733 86.52 98.76C88.3867 100.533 92.7267 103.8 99.54 108.56C106.447 113.32 111.58 117.893 114.94 122.28C118.393 126.573 120.12 131.613 120.12 137.4C120.12 148.04 115.967 156.673 107.66 163.3C99.4467 169.927 88.9933 173.24 76.3 173.24C63.7 173.24 54.18 170.44 47.74 164.84C42.14 160.08 39.34 154.247 39.34 147.34C39.34 140.527 41.5333 134.693 45.92 129.84C50.4 124.893 55.9533 122.42 62.58 122.42C69.2067 122.42 74.1067 123.913 77.28 126.9C80.4533 129.793 82.04 133.34 82.04 137.54C82.04 141.74 80.7333 145.473 78.12 148.74C75.6 152.007 72.2867 153.64 68.18 153.64C64.0733 153.64 60.8067 152.333 58.38 149.72C56.14 147.48 54.88 144.68 54.6 141.32C54.5067 140.387 54.5067 139.827 54.6 139.64L57.26 139.78C57.1667 143.047 58.1933 145.753 60.34 147.9C62.1133 149.86 64.68 150.84 68.04 150.84C71.4933 150.84 74.2467 149.487 76.3 146.78C78.3533 144.167 79.38 141.133 79.38 137.68C79.38 134.133 78.1667 131.287 75.74 129.14C73.0333 126.433 68.6933 125.08 62.72 125.08C56.7467 125.08 51.8 127.273 47.88 131.66C43.96 135.953 42 141.133 42 147.2C42 153.36 44.52 158.587 49.56 162.88C52.5467 165.493 55.58 167.36 58.66 168.48C61.8333 169.6 66.0333 170.16 71.26 170.16ZM95.06 73.84C95.06 69.7333 96.0867 66.3267 98.14 63.62C100.287 60.9133 103.18 59.56 106.82 59.56C113.073 59.56 116.2 63.0133 116.2 69.92C116.2 76.7333 112.793 83.1733 105.98 89.24C108.033 90.1733 110.18 90.64 112.42 90.64C118.207 90.64 122.827 88.7733 126.28 85.04C129.733 81.2133 131.46 76.78 131.46 71.74C131.46 66.6067 129.593 62.2667 125.86 58.72C121.287 54.6133 115.267 52.56 107.8 52.56C100.333 52.56 93.9867 54.38 88.76 58.02C80.64 63.8067 76.58 71.2733 76.58 80.42C76.58 87.98 79.1 93.4867 84.14 96.94C90.3933 95.54 96.18 93.02 101.5 89.38C97.2067 85.5533 95.06 80.3733 95.06 73.84ZM106.68 62.08C103.88 62.08 101.687 63.1533 100.1 65.3C98.6067 67.4467 97.86 70.2933 97.86 73.84C97.86 79.9067 99.7733 84.5267 103.6 87.7C106.4 85.74 108.733 83.08 110.6 79.72C112.467 76.36 113.4 73.0467 113.4 69.78C113.4 64.6467 111.16 62.08 106.68 62.08Z" fill="#990139"/>
</g>
<path fill-rule="evenodd" clip-rule="evenodd" d="M145.982 174.721C144.943 174.588 143.846 174.644 142.821 175.288C142.27 175.635 141.75 175.999 141.245 176.352C141.176 176.4 141.108 176.448 141.039 176.496C140.465 176.897 139.904 177.283 139.304 177.633C139.066 177.773 138.985 178.079 139.125 178.317C139.264 178.556 139.57 178.636 139.809 178.496C140.446 178.124 141.037 177.718 141.612 177.316C141.681 177.267 141.75 177.219 141.819 177.171C142.326 176.816 142.824 176.467 143.353 176.135C144.105 175.663 144.937 175.595 145.855 175.712C146.317 175.771 146.788 175.875 147.274 175.992C147.389 176.02 147.506 176.048 147.623 176.077C147.993 176.167 148.372 176.26 148.741 176.334C151.861 176.958 153.912 179.165 155.053 181.974C156.197 184.791 156.401 188.167 155.838 190.984C155.761 191.366 155.697 191.765 155.634 192.156C155.612 192.29 155.591 192.424 155.569 192.556C155.483 193.078 155.39 193.583 155.258 194.062C154.996 195.016 154.592 195.821 153.836 196.391C150.587 198.844 147.507 200.936 144.019 203.028C141.607 204.475 139.368 206.273 137.186 208.067C136.966 208.249 136.745 208.431 136.525 208.612C134.566 210.228 132.644 211.812 130.645 213.145C130.415 213.298 130.353 213.608 130.506 213.838C130.659 214.068 130.97 214.13 131.2 213.977C133.244 212.614 135.206 210.996 137.159 209.385C137.38 209.203 137.601 209.021 137.822 208.839C140.004 207.044 142.192 205.29 144.533 203.886C148.054 201.774 151.163 199.662 154.438 197.19C155.44 196.434 155.93 195.391 156.222 194.327C156.368 193.796 156.468 193.248 156.556 192.719C156.579 192.577 156.602 192.437 156.624 192.298C156.686 191.913 156.746 191.542 156.818 191.18C157.416 188.192 157.205 184.615 155.979 181.597C154.75 178.571 152.475 176.061 148.938 175.353C148.591 175.284 148.241 175.198 147.876 175.109C147.755 175.079 147.632 175.049 147.507 175.02C147.015 174.901 146.5 174.787 145.982 174.721Z" fill="black"/>
<path fill-rule="evenodd" clip-rule="evenodd" d="M139.863 177.67C139.645 177.501 139.331 177.54 139.162 177.758C138.184 179.015 137.284 180.341 136.396 181.651C136.088 182.106 135.78 182.56 135.472 183.007C134.267 184.754 133.028 186.433 131.553 187.908C131.358 188.103 131.358 188.42 131.553 188.615C131.748 188.811 132.065 188.811 132.26 188.615C133.802 187.074 135.082 185.333 136.295 183.575C136.614 183.113 136.927 182.65 137.24 182.189C138.122 180.888 138.995 179.601 139.951 178.372C140.121 178.154 140.081 177.84 139.863 177.67Z" fill="black"/>
<path fill-rule="evenodd" clip-rule="evenodd" d="M123.855 170.96C124.9 171.033 125.965 171.304 126.844 172.137C127.316 172.585 127.755 173.043 128.181 173.489C128.239 173.55 128.296 173.611 128.354 173.671C128.838 174.177 129.313 174.665 129.832 175.126C130.039 175.31 130.057 175.626 129.874 175.832C129.69 176.039 129.374 176.057 129.168 175.874C128.616 175.383 128.117 174.869 127.631 174.362C127.573 174.301 127.515 174.24 127.457 174.18C127.029 173.732 126.609 173.292 126.156 172.863C125.511 172.252 124.709 172.022 123.785 171.957C123.321 171.924 122.839 171.934 122.339 171.953C122.221 171.957 122.101 171.962 121.98 171.967C121.6 171.984 121.21 172 120.833 172C117.651 172 115.208 173.762 113.538 176.292C111.863 178.83 111 182.1 111 184.972C111 185.363 110.985 185.766 110.969 186.162C110.964 186.298 110.959 186.433 110.955 186.567C110.937 187.096 110.929 187.609 110.964 188.104C111.034 189.092 111.272 189.96 111.901 190.668C114.606 193.71 117.215 196.366 120.225 199.102C122.306 200.994 124.149 203.197 125.936 205.384C126.117 205.606 126.297 205.827 126.477 206.048C128.081 208.017 129.654 209.947 131.354 211.646C131.549 211.842 131.549 212.158 131.354 212.354C131.158 212.549 130.842 212.549 130.646 212.354C128.909 210.616 127.303 208.645 125.704 206.682C125.523 206.46 125.342 206.238 125.161 206.017C123.373 203.828 121.572 201.678 119.553 199.842C116.515 197.081 113.88 194.399 111.154 191.332C110.32 190.394 110.045 189.276 109.967 188.175C109.928 187.626 109.937 187.069 109.955 186.533C109.96 186.389 109.965 186.247 109.971 186.107C109.986 185.717 110 185.342 110 184.972C110 181.925 110.909 178.459 112.703 175.741C114.503 173.014 117.226 171 120.833 171C121.187 171 121.547 170.985 121.922 170.969C122.047 170.964 122.173 170.958 122.301 170.954C122.807 170.934 123.335 170.923 123.855 170.96Z" fill="black"/>
<path fill-rule="evenodd" clip-rule="evenodd" d="M129.276 175.053C129.523 174.929 129.824 175.029 129.947 175.276C130.659 176.701 131.281 178.178 131.895 179.637C132.108 180.144 132.32 180.649 132.535 181.148C133.374 183.097 134.259 184.987 135.416 186.723C135.569 186.952 135.507 187.263 135.277 187.416C135.048 187.569 134.737 187.507 134.584 187.277C133.375 185.463 132.461 183.505 131.617 181.543C131.395 181.027 131.178 180.512 130.962 179.999C130.352 178.549 129.749 177.116 129.053 175.724C128.929 175.477 129.029 175.176 129.276 175.053Z" fill="black"/>
<defs>
<filter id="filter0_d_0_1" x="26.66" y="46.4" width="472.924" height="298.1" filterUnits="userSpaceOnUse" color-interpolation-filters="sRGB">
<feFlood flood-opacity="0" result="BackgroundImageFix"/>
<feColorMatrix in="SourceAlpha" type="matrix" values="0 0 0 0 0 0 0 0 0 0 0 0 0 0 0 0 0 0 127 0" result="hardAlpha"/>
<feOffset dy="4"/>
<feGaussianBlur stdDeviation="2"/>
<feComposite in2="hardAlpha" operator="out"/>
<feColorMatrix type="matrix" values="0 0 0 0 0 0 0 0 0 0 0 0 0 0 0 0 0 0 0.25 0"/>
<feBlend mode="normal" in2="BackgroundImageFix" result="effect1_dropShadow_0_1"/>
<feBlend mode="normal" in="SourceGraphic" in2="effect1_dropShadow_0_1" result="shape"/>
</filter>
</defs>
</svg>
