<svg width="797" height="60" viewBox="0 0 797 60" fill="none" xmlns="http://www.w3.org/2000/svg">
<path d="M784.495 29.016C786.031 26.2853 786.799 23.5333 786.799 20.76C786.799 18.9253 786.138 18.008 784.815 18.008C783.791 18.008 782.746 18.8827 781.679 20.632C780.57 22.3813 779.844 24.3867 779.503 26.648L776.175 47L762.927 48.28L769.455 14.36L780.015 13.08L778.863 19.544C780.954 15.2347 784.346 13.08 789.039 13.08C791.514 13.08 793.412 13.72 794.735 15C796.1 16.28 796.783 18.2427 796.783 20.888C796.783 23.4907 795.908 25.624 794.159 27.288C792.452 28.952 790.127 29.784 787.183 29.784C785.903 29.784 785.007 29.528 784.495 29.016Z" fill="#0E6953"/>
<path d="M756.32 36.184C757.387 36.9093 757.92 38.0827 757.92 39.704C757.92 41.2827 757.515 42.584 756.704 43.608C755.894 44.632 754.827 45.4853 753.504 46.168C750.774 47.576 747.936 48.28 744.992 48.28C742.048 48.28 739.702 47.96 737.952 47.32C736.246 46.68 734.816 45.7627 733.664 44.568C731.403 42.3067 730.272 39.1067 730.272 34.968C730.272 28.5253 732.022 23.3413 735.52 19.416C739.275 15.192 744.416 13.08 750.944 13.08C754.998 13.08 758.027 13.9333 760.032 15.64C761.526 16.92 762.272 18.6053 762.272 20.696C762.272 28.2053 755.787 31.96 742.816 31.96C742.646 33.0693 742.56 34.0933 742.56 35.032C742.56 36.9947 742.987 38.36 743.84 39.128C744.736 39.8533 745.995 40.216 747.616 40.216C749.238 40.216 750.902 39.8533 752.608 39.128C754.358 38.36 755.595 37.3787 756.32 36.184ZM743.264 29.208C746.294 29.208 748.683 28.2693 750.432 26.392C752.182 24.6 753.056 22.2747 753.056 19.416C753.056 18.4347 752.864 17.688 752.48 17.176C752.139 16.6213 751.606 16.344 750.88 16.344C750.155 16.344 749.472 16.4933 748.832 16.792C748.235 17.048 747.616 17.6453 746.976 18.584C745.398 20.7173 744.16 24.2587 743.264 29.208Z" fill="black"/>
<path d="M690.256 43.928L698.192 2.2L711.184 0.919998L709.2 10.712C708.731 12.7173 708.197 14.424 707.6 15.832C708.539 14.6373 710.032 13.8053 712.08 13.336C712.677 13.1653 713.339 13.08 714.064 13.08C718.032 13.08 721.104 14.296 723.28 16.728C725.456 19.1173 726.544 22.6373 726.544 27.288C726.544 33.3467 724.816 38.2747 721.36 42.072C717.648 46.2107 712.421 48.28 705.68 48.28C701.029 48.28 696.955 47.512 693.456 45.976C692.219 45.4213 691.152 44.7387 690.256 43.928ZM703.12 43.352C704.016 44.12 705.019 44.504 706.128 44.504C707.237 44.504 708.112 44.2907 708.752 43.864C709.392 43.4373 709.947 42.7973 710.416 41.944C711.696 39.64 712.848 34.968 713.872 27.928C714.171 25.9227 714.32 23.9173 714.32 21.912C714.32 19.9067 714.085 18.584 713.616 17.944C713.189 17.304 712.549 16.984 711.696 16.984C709.093 16.984 707.365 19.5227 706.512 24.6L703.12 43.352Z" fill="#7F58A6"/>
<path d="M650.943 43.928L658.88 2.2L671.872 0.919998L669.888 10.712C669.418 12.7173 668.885 14.424 668.287 15.832C669.226 14.6373 670.72 13.8053 672.768 13.336C673.365 13.1653 674.026 13.08 674.752 13.08C678.72 13.08 681.792 14.296 683.968 16.728C686.144 19.1173 687.232 22.6373 687.232 27.288C687.232 33.3467 685.503 38.2747 682.047 42.072C678.335 46.2107 673.109 48.28 666.367 48.28C661.717 48.28 657.642 47.512 654.143 45.976C652.906 45.4213 651.839 44.7387 650.943 43.928ZM663.807 43.352C664.703 44.12 665.706 44.504 666.815 44.504C667.925 44.504 668.8 44.2907 669.44 43.864C670.08 43.4373 670.634 42.7973 671.104 41.944C672.384 39.64 673.536 34.968 674.56 27.928C674.858 25.9227 675.008 23.9173 675.008 21.912C675.008 19.9067 674.773 18.584 674.304 17.944C673.877 17.304 673.237 16.984 672.383 16.984C669.781 16.984 668.053 19.5227 667.2 24.6L663.807 43.352Z" fill="black"/>
<path d="M646.323 43.48C645 46.68 642.227 48.28 638.003 48.28C635.827 48.28 634.056 47.5333 632.691 46.04C631.539 44.7173 630.963 43.3947 630.963 42.072C630.963 38.616 631.752 33.5173 633.331 26.776L635.699 14.36L648.691 13.08L644.787 33.304C644.062 36.4613 643.699 38.5947 643.699 39.704C643.699 42.136 644.574 43.3947 646.323 43.48ZM636.851 5.464C636.851 3.8 637.534 2.52 638.899 1.624C640.307 0.727998 642.014 0.279999 644.019 0.279999C646.024 0.279999 647.624 0.727998 648.819 1.624C650.056 2.52 650.675 3.8 650.675 5.464C650.675 7.128 649.992 8.38667 648.627 9.24C647.304 10.0933 645.64 10.52 643.635 10.52C641.63 10.52 639.987 10.0933 638.707 9.24C637.47 8.38667 636.851 7.128 636.851 5.464Z" fill="#BC2E59"/>
<path d="M589.573 46.68L597.637 4.76C602.672 4.33333 606.81 4.12 610.053 4.12C613.296 4.12 615.962 4.26933 618.053 4.568C620.144 4.824 621.893 5.31467 623.301 6.04C626.117 7.40533 627.525 9.96533 627.525 13.72C627.525 15.896 626.586 17.9013 624.709 19.736C622.96 21.4 621.125 22.424 619.205 22.808C621.253 23.1493 623.002 24.088 624.453 25.624C625.989 27.2453 626.757 29.3147 626.757 31.832C626.757 36.696 624.944 40.5573 621.317 43.416C617.69 46.232 612.314 47.64 605.189 47.64C600.282 47.64 595.077 47.32 589.573 46.68ZM603.781 42.968C604.165 43.0107 604.4 43.032 604.485 43.032H605.061C608.56 43.032 611.056 41.88 612.549 39.576C613.658 37.784 614.213 35.2453 614.213 31.96C614.213 30.2107 613.637 28.8667 612.485 27.928C611.376 26.9893 609.541 26.4773 606.981 26.392L603.781 42.968ZM616.709 13.784C616.709 10.2427 615.002 8.472 611.589 8.472H611.013C610.842 8.472 610.629 8.49333 610.373 8.536L607.813 22.04H608.453C613.957 21.912 616.709 19.16 616.709 13.784Z" fill="black"/>
<path d="M567.518 36.632C566.153 35.6507 565.47 34.2213 565.47 32.344C565.47 31.32 565.726 30.4027 566.238 29.592C566.75 28.7387 567.518 28.248 568.542 28.12H581.15C582.558 28.12 583.476 27.6933 583.902 26.84C584.585 27.224 585.076 27.8213 585.374 28.632C585.673 29.4427 585.822 30.2747 585.822 31.128C585.822 31.9813 585.481 32.8347 584.798 33.688C584.158 34.4987 583.348 34.9467 582.366 35.032H570.654C569.758 35.032 569.097 35.1813 568.67 35.48C568.244 35.736 567.86 36.12 567.518 36.632Z" fill="#2CD18B"/>
<path d="M552.098 48.28C546.935 48.28 544.354 46.2747 544.354 42.264C544.396 41.1547 544.588 39.6613 544.93 37.784L546.082 31.896C547.234 26.3493 547.81 22.9573 547.81 21.72C547.81 19.2453 547.084 18.008 545.634 18.008C543.202 18.008 541.346 21.1867 540.066 27.544L536.29 47L523.426 48.28L530.082 14.296L540.578 13.08L539.554 19.352C541.559 15.1707 545.634 13.08 551.778 13.08C554.764 13.08 556.876 13.72 558.114 15C559.394 16.2373 560.034 18.264 560.034 21.08C560.034 23.7253 559.351 28.1413 557.986 34.328C557.346 37.1013 557.026 39.0213 557.026 40.088C557.026 41.112 557.303 41.9227 557.858 42.52C558.455 43.1173 559.18 43.4587 560.034 43.544C559.607 44.9947 558.647 46.1467 557.154 47C555.703 47.8533 554.018 48.28 552.098 48.28Z" fill="black"/>
<path d="M487.59 45.08C486.609 43.9707 485.883 42.5413 485.414 40.792C484.987 39.0427 484.774 36.7387 484.774 33.88C484.774 31.0213 485.265 28.2907 486.246 25.688C487.227 23.0853 488.614 20.8453 490.406 18.968C494.075 15.0427 498.939 13.08 504.998 13.08C507.174 13.08 509.051 13.4427 510.63 14.168L521.574 13.08L516.838 38.04C516.71 38.552 516.646 39.2773 516.646 40.216C516.646 41.1547 516.923 41.9227 517.478 42.52C518.075 43.1173 518.801 43.4587 519.654 43.544C519.227 44.9947 518.225 46.1467 516.646 47C515.11 47.8533 513.467 48.28 511.718 48.28C509.969 48.28 508.497 47.9387 507.302 47.256C506.15 46.616 505.403 45.7413 505.062 44.632C504.379 45.6987 503.313 46.5733 501.862 47.256C500.411 47.9387 498.705 48.28 496.742 48.28C494.822 48.28 493.073 48.024 491.494 47.512C489.915 47 488.614 46.1893 487.59 45.08ZM501.094 19.096C500.625 19.864 500.177 20.9093 499.75 22.232C499.323 23.512 498.747 25.9013 498.022 29.4C497.339 32.856 496.998 35.8213 496.998 38.296C496.998 40.7707 497.19 42.3707 497.574 43.096C497.958 43.8213 498.491 44.184 499.174 44.184C500.539 44.184 501.713 43.544 502.694 42.264C503.718 40.9413 504.422 39.128 504.806 36.824L508.198 18.072C507.302 17.304 506.321 16.92 505.254 16.92C504.23 16.92 503.398 17.0907 502.758 17.432C502.161 17.7733 501.606 18.328 501.094 19.096Z" fill="#0E6953"/>
<path d="M448.25 7.32C449.488 4.76 451.813 3.48 455.227 3.48C458.683 3.48 461.2 4.48267 462.779 6.488C464.4 8.45067 465.211 11.7147 465.211 16.28V39.128L480.763 4.824H488.379L468.474 47H453.499L451.578 16.28C451.45 14.0187 451.067 12.12 450.427 10.584C449.829 9.048 449.104 7.96 448.25 7.32Z" fill="black"/>
<path d="M413.382 44.312C411.334 46.9573 407.771 48.28 402.694 48.28C400.049 48.28 397.766 47.4907 395.846 45.912C393.926 44.2907 392.966 42.328 392.966 40.024C392.966 38.744 393.03 37.784 393.158 37.144L397.446 14.36L410.438 13.08L405.766 37.784C405.595 38.7227 405.51 39.4693 405.51 40.024C405.51 42.4987 406.257 43.736 407.75 43.736C409.414 43.736 410.843 42.6053 412.038 40.344C412.422 39.6187 412.699 38.7867 412.87 37.848L417.414 14.36L430.022 13.08L425.286 38.04C425.158 38.68 425.094 39.3413 425.094 40.024C425.094 40.7067 425.286 41.432 425.67 42.2C426.054 42.9253 426.865 43.3733 428.102 43.544C427.846 44.568 427.27 45.4213 426.374 46.104C424.497 47.5547 422.534 48.28 420.486 48.28C418.481 48.28 416.881 47.9173 415.686 47.192C414.491 46.4667 413.723 45.5067 413.382 44.312Z" fill="#FF006B"/>
<path d="M373.627 39.768C371.409 42.072 368.273 43.224 364.219 43.224C359.142 43.224 356.07 41.368 355.003 37.656C354.662 36.5467 354.491 35.3733 354.491 34.136C354.491 32.8987 354.619 31.64 354.875 30.36L357.883 14.36L370.875 13.08L367.355 31.704C367.27 32.2587 367.163 32.8347 367.035 33.432C366.907 34.0293 366.843 34.648 366.843 35.288C366.843 35.8853 366.95 36.3973 367.163 36.824C367.377 37.208 367.633 37.528 367.931 37.784C368.443 38.1253 369.147 38.296 370.043 38.296C370.982 38.296 371.835 37.7413 372.603 36.632C373.414 35.5227 374.011 34.008 374.395 32.088L377.915 14.36L390.523 13.08L385.723 38.232C384.145 46.424 381.734 52.1413 378.491 55.384C376.827 57.048 374.907 58.2 372.731 58.84C370.598 59.5227 368.145 59.864 365.371 59.864C360.891 59.864 357.371 59.16 354.811 57.752C352.251 56.344 350.971 54.4667 350.971 52.12C350.971 50.3707 351.633 48.984 352.955 47.96C354.278 46.9787 355.963 46.488 358.011 46.488C359.803 46.488 361.382 46.872 362.747 47.64C363.558 48.1093 364.155 48.6427 364.539 49.24C363.558 50.0933 363.067 51.224 363.067 52.632C363.067 54.5093 363.921 55.448 365.627 55.448C368.443 55.448 370.662 52.2053 372.283 45.72C372.753 43.8 373.201 41.816 373.627 39.768Z" fill="black"/>
<path d="M340.223 48.28C335.06 48.28 332.479 46.2747 332.479 42.264C332.521 41.1547 332.713 39.6613 333.055 37.784L334.207 31.896C335.359 26.3493 335.935 22.9573 335.935 21.72C335.935 19.2453 335.209 18.008 333.759 18.008C331.327 18.008 329.471 21.1867 328.191 27.544L324.415 47L311.551 48.28L318.207 14.296L328.703 13.08L327.679 19.352C329.684 15.1707 333.759 13.08 339.903 13.08C342.889 13.08 345.001 13.72 346.239 15C347.519 16.2373 348.159 18.264 348.159 21.08C348.159 23.7253 347.476 28.1413 346.111 34.328C345.471 37.1013 345.151 39.0213 345.151 40.088C345.151 41.112 345.428 41.9227 345.983 42.52C346.58 43.1173 347.305 43.4587 348.159 43.544C347.732 44.9947 346.772 46.1467 345.279 47C343.828 47.8533 342.143 48.28 340.223 48.28Z" fill="#CE2A51"/>
<path d="M305.008 36.184C306.075 36.9093 306.608 38.0827 306.608 39.704C306.608 41.2827 306.203 42.584 305.392 43.608C304.581 44.632 303.515 45.4853 302.192 46.168C299.461 47.576 296.624 48.28 293.68 48.28C290.736 48.28 288.389 47.96 286.64 47.32C284.933 46.68 283.504 45.7627 282.352 44.568C280.091 42.3067 278.96 39.1067 278.96 34.968C278.96 28.5253 280.709 23.3413 284.208 19.416C287.963 15.192 293.104 13.08 299.632 13.08C303.685 13.08 306.715 13.9333 308.72 15.64C310.213 16.92 310.96 18.6053 310.96 20.696C310.96 28.2053 304.475 31.96 291.504 31.96C291.333 33.0693 291.248 34.0933 291.248 35.032C291.248 36.9947 291.675 38.36 292.528 39.128C293.424 39.8533 294.683 40.216 296.304 40.216C297.925 40.216 299.589 39.8533 301.296 39.128C303.045 38.36 304.283 37.3787 305.008 36.184ZM291.952 29.208C294.981 29.208 297.371 28.2693 299.12 26.392C300.869 24.6 301.744 22.2747 301.744 19.416C301.744 18.4347 301.552 17.688 301.168 17.176C300.827 16.6213 300.293 16.344 299.568 16.344C298.843 16.344 298.16 16.4933 297.52 16.792C296.923 17.048 296.304 17.6453 295.664 18.584C294.085 20.7173 292.848 24.2587 291.952 29.208Z" fill="black"/>
<path d="M257.71 42.2C257.71 39.2133 258.307 34.7333 259.502 28.76H250.03L246.51 47H233.134L241.262 4.76H254.766L251.054 23.64H260.526L264.046 4.76H277.55C276.953 7.91733 276.27 11.2667 275.502 14.808L273.326 25.24C271.705 33.3467 270.894 39.1707 270.894 42.712C270.894 44.1627 271.129 45.2933 271.598 46.104C269.465 47.5547 267.139 48.28 264.622 48.28C262.147 48.28 260.377 47.6827 259.31 46.488C258.243 45.2933 257.71 43.864 257.71 42.2Z" fill="#E476A4"/>
<path d="M183.215 45.08C182.234 43.9707 181.508 42.5413 181.039 40.792C180.612 39.0427 180.399 36.7387 180.399 33.88C180.399 31.0213 180.89 28.2907 181.871 25.688C182.852 23.0853 184.239 20.8453 186.031 18.968C189.7 15.0427 194.564 13.08 200.623 13.08C202.799 13.08 204.676 13.4427 206.255 14.168L217.199 13.08L212.463 38.04C212.335 38.552 212.271 39.2773 212.271 40.216C212.271 41.1547 212.548 41.9227 213.103 42.52C213.7 43.1173 214.426 43.4587 215.279 43.544C214.852 44.9947 213.85 46.1467 212.271 47C210.735 47.8533 209.092 48.28 207.343 48.28C205.594 48.28 204.122 47.9387 202.927 47.256C201.775 46.616 201.028 45.7413 200.687 44.632C200.004 45.6987 198.938 46.5733 197.487 47.256C196.036 47.9387 194.33 48.28 192.367 48.28C190.447 48.28 188.698 48.024 187.119 47.512C185.54 47 184.239 46.1893 183.215 45.08ZM196.719 19.096C196.25 19.864 195.802 20.9093 195.375 22.232C194.948 23.512 194.372 25.9013 193.647 29.4C192.964 32.856 192.623 35.8213 192.623 38.296C192.623 40.7707 192.815 42.3707 193.199 43.096C193.583 43.8213 194.116 44.184 194.799 44.184C196.164 44.184 197.338 43.544 198.319 42.264C199.343 40.9413 200.047 39.128 200.431 36.824L203.823 18.072C202.927 17.304 201.946 16.92 200.879 16.92C199.855 16.92 199.023 17.0907 198.383 17.432C197.786 17.7733 197.231 18.328 196.719 19.096Z" fill="black"/>
<path d="M175.011 43.48C173.688 46.68 170.915 48.28 166.691 48.28C164.515 48.28 162.744 47.5333 161.379 46.04C160.227 44.7173 159.651 43.3947 159.651 42.072C159.651 38.616 160.44 33.5173 162.019 26.776L164.387 14.36L177.379 13.08L173.475 33.304C172.749 36.4613 172.387 38.5947 172.387 39.704C172.387 42.136 173.261 43.3947 175.011 43.48ZM165.539 5.464C165.539 3.8 166.221 2.52 167.587 1.624C168.995 0.727998 170.701 0.279999 172.707 0.279999C174.712 0.279999 176.312 0.727998 177.507 1.624C178.744 2.52 179.363 3.8 179.363 5.464C179.363 7.128 178.68 8.38667 177.315 9.24C175.992 10.0933 174.328 10.52 172.323 10.52C170.317 10.52 168.675 10.0933 167.395 9.24C166.157 8.38667 165.539 7.128 165.539 5.464Z" fill="#2CD18B"/>
<path d="M146.598 48.28C141.435 48.28 138.854 46.2747 138.854 42.264C138.896 41.1547 139.088 39.6613 139.43 37.784L140.582 31.896C141.734 26.3493 142.31 22.9573 142.31 21.72C142.31 19.2453 141.584 18.008 140.134 18.008C137.702 18.008 135.846 21.1867 134.566 27.544L130.79 47L117.926 48.28L124.582 14.296L135.078 13.08L134.054 19.352C136.059 15.1707 140.134 13.08 146.278 13.08C149.264 13.08 151.376 13.72 152.614 15C153.894 16.2373 154.534 18.264 154.534 21.08C154.534 23.7253 153.851 28.1413 152.486 34.328C151.846 37.1013 151.526 39.0213 151.526 40.088C151.526 41.112 151.803 41.9227 152.358 42.52C152.955 43.1173 153.68 43.4587 154.534 43.544C154.107 44.9947 153.147 46.1467 151.654 47C150.203 47.8533 148.518 48.28 146.598 48.28Z" fill="black"/>
<path d="M82.09 45.08C81.1086 43.9707 80.3833 42.5413 79.914 40.792C79.4873 39.0427 79.274 36.7387 79.274 33.88C79.274 31.0213 79.7647 28.2907 80.746 25.688C81.7273 23.0853 83.114 20.8453 84.906 18.968C88.5753 15.0427 93.4393 13.08 99.498 13.08C101.674 13.08 103.551 13.4427 105.13 14.168L116.074 13.08L111.338 38.04C111.21 38.552 111.146 39.2773 111.146 40.216C111.146 41.1547 111.423 41.9227 111.978 42.52C112.575 43.1173 113.301 43.4587 114.154 43.544C113.727 44.9947 112.725 46.1467 111.146 47C109.61 47.8533 107.967 48.28 106.218 48.28C104.469 48.28 102.997 47.9387 101.802 47.256C100.65 46.616 99.9033 45.7413 99.562 44.632C98.8793 45.6987 97.8127 46.5733 96.362 47.256C94.9113 47.9387 93.2047 48.28 91.242 48.28C89.322 48.28 87.5727 48.024 85.994 47.512C84.4153 47 83.114 46.1893 82.09 45.08ZM95.594 19.096C95.1247 19.864 94.6767 20.9093 94.25 22.232C93.8233 23.512 93.2473 25.9013 92.522 29.4C91.8393 32.856 91.498 35.8213 91.498 38.296C91.498 40.7707 91.69 42.3707 92.074 43.096C92.458 43.8213 92.9913 44.184 93.674 44.184C95.0393 44.184 96.2127 43.544 97.194 42.264C98.218 40.9413 98.922 39.128 99.306 36.824L102.698 18.072C101.802 17.304 100.821 16.92 99.754 16.92C98.73 16.92 97.898 17.0907 97.258 17.432C96.6607 17.7733 96.106 18.328 95.594 19.096Z" fill="#844ACE"/>
<path d="M71.28 39.896C71.28 41.7733 72.24 42.9893 74.16 43.544C73.6906 45.1227 72.5386 46.3387 70.704 47.192C69.168 47.9173 67.5466 48.28 65.84 48.28C64.176 48.28 62.896 48.0453 62 47.576C61.1466 47.1493 60.4853 46.5733 60.016 45.848C59.248 44.7387 58.864 43.1387 58.864 41.048C58.864 39.8107 59.2053 37.4853 59.888 34.072L60.784 29.208C61.5093 25.496 61.872 22.9573 61.872 21.592C61.872 19.2027 61.2106 18.008 59.888 18.008C58.224 18.008 56.8586 19.224 55.792 21.656C55.3653 22.5947 55.0026 23.768 54.704 25.176L50.352 47L37.488 48.28L46.512 2.2L59.376 0.919998L58.864 3.48C57.6693 10.0507 56.56 14.4453 55.536 16.664C57.9253 14.2747 61.3173 13.08 65.712 13.08C70.3627 13.08 73.1146 14.616 73.968 17.688C74.2666 18.6693 74.416 19.5867 74.416 20.44C74.416 21.2933 74.3733 22.0613 74.288 22.744C74.2453 23.384 74.1173 24.3013 73.904 25.496L73.072 30.104L71.6 37.336C71.3867 38.3173 71.28 39.1707 71.28 39.896Z" fill="black"/>
<path d="M26.298 17.432C26.938 16.152 27.258 14.9147 27.258 13.72C27.258 12.5253 27.194 11.608 27.066 10.968C26.938 10.2853 26.7247 9.688 26.426 9.176C25.786 8.06666 24.826 7.512 23.546 7.512C21.9673 7.512 20.538 8.088 19.258 9.24C17.8927 10.4347 17.21 11.9707 17.21 13.848C17.21 15.0427 17.6153 16.1093 18.426 17.048C19.2793 17.944 20.346 18.8187 21.626 19.672C22.906 20.5253 24.2713 21.3787 25.722 22.232C27.1727 23.0853 28.538 24.024 29.818 25.048C32.762 27.3947 34.234 30.1467 34.234 33.304C34.234 35.4373 33.658 37.4213 32.506 39.256C31.3967 41.048 29.9033 42.6053 28.026 43.928C23.93 46.8293 19.1727 48.28 13.754 48.28C9.35932 48.28 6.03132 47.576 3.76999 46.168C1.50866 44.7173 0.377991 42.904 0.377991 40.728C0.377991 36.8453 1.89266 34.4133 4.92199 33.432C5.77532 33.1333 6.84199 32.984 8.12199 32.984C9.44466 32.984 10.8527 33.2613 12.346 33.816C11.6633 35.5653 11.322 37.2293 11.322 38.808C11.322 42.2213 12.538 43.928 14.97 43.928C16.5487 43.928 17.978 43.352 19.258 42.2C20.5807 41.048 21.242 39.832 21.242 38.552C21.242 37.2293 20.8153 36.0987 19.962 35.16C19.1513 34.2213 18.1273 33.3893 16.89 32.664C15.6527 31.896 14.3087 31.1493 12.858 30.424C11.45 29.6987 10.1273 28.824 8.88999 27.8C5.98866 25.4533 4.53799 22.4027 4.53799 18.648C4.53799 16.216 5.13532 14.0613 6.32999 12.184C7.52466 10.264 9.08199 8.664 11.002 7.384C14.842 4.78133 19.1087 3.48 23.802 3.48C28.538 3.48 32.0367 4.184 34.298 5.592C36.602 7 37.754 8.89867 37.754 11.288C37.754 13.3787 36.9433 15.0853 35.322 16.408C33.914 17.5173 32.3567 18.072 30.65 18.072C28.9433 18.072 27.4927 17.8587 26.298 17.432Z" fill="#EA2661"/>
</svg>
