<?xml version="1.0" encoding="utf-8"?>
<!-- Generator: Adobe Illustrator 28.2.0, SVG Export Plug-In . SVG Version: 6.00 Build 0)  -->
<svg version="1.1" xmlns="http://www.w3.org/2000/svg" xmlns:xlink="http://www.w3.org/1999/xlink" x="0px" y="0px"
	 viewBox="0 0 612 792" style="enable-background:new 0 0 612 792;" xml:space="preserve">
<style type="text/css">
	.st0{fill:#07B688;}
	.st1{fill:#506EB5;}
	.st2{fill:#F3726F;}
	.st3{fill:#8CC63F;}
	.st4{fill:#F9AA8F;}
	.st5{fill:#EF4956;}
	.st6{fill:#66C9CF;}
	.st7{fill:none;}
	.st8{font-family:'NuevaStd-Cond';}
	.st9{font-size:250px;}
</style>
<g id="blobs">
	<path class="st0" d="M66.4,288.15c21.27,194.5-57.45,72.77-57.45,136.34s22.21,78.89,40.6,90.38c18.38,11.49,63.57,9.96,72-32.94
		s41.36-47.49,54.38-52.85c13.02-5.36,58.98,7.66,60.51,37.53c1.53,29.87,36.77,58.21,64.34,44.43s60.51-52.09,28.34-94.98
		s-49.02-69.7-111.83-55.91s-66.64-75.83-84.26-95.74S61.04,239.13,66.4,288.15z"/>
	<path class="st1" d="M289.3,149c-81.57,37.48,0.77,115.66,25.28,147.06c24.51,31.4,28.34,105.7,58.21,90.38
		s54.38-61.28,43.66-83.49c-10.72-22.21,5.36-45.43,32.94-34.21C476.96,279.98,487.68,57.85,289.3,149z"/>
	<path class="st2" d="M425.66,433.19c-95.08,106.66-18.88,124.71,57.09,116.56s18.33-64.77,57.65-102.42s11.36-128.65,6.77-145.5
		c-9.31-34.13-121.53,9.7-82.72,57.7C505.99,410.9,445.1,411.37,425.66,433.19z"/>
	<path class="st3" d="M91.09,535.3c-32.09,24.01-49.79,75.06-16.85,103.4c32.94,28.34,104.94,35.23,129.45,30.64
		c24.51-4.6,85.79-90.38,43.66-129.45S197.55,455.64,91.09,535.3z"/>
	<path class="st4" d="M47.77,113c-22.01,70.86-3.83,90.38,28.34,100.34s73.53-11.49,117.96,37.53s89.62,99.57,67.4,23.74
		s-50.55-143.23-12.26-149.36c38.3-6.13,58.21-70.47,19.15-80.43S86.06-10.32,47.77,113z"/>
	<path class="st5" d="M348.28,30.79c-44.76,32.83-55.91,91.15-9.96,78.89s124.85-22.21,139.4,12.26
		c14.55,34.47-19.15,94.98,29.11,124.09s88.09,62.04,75.06-72S417.21-19.77,348.28,30.79z"/>
	<path class="st6" d="M319.94,567.21c-65.58,59.88-68.43,127.66-28.6,148.09s86.81,106.21,164.43,11.23s151.15-140.94,15.32-153.19
		C335.26,561.09,366.91,524.32,319.94,567.21z"/>
	<rect x="809.13" y="336.4" class="st7" width="2.04" height="2.04"/>
</g>
<g id="name">
	<rect x="81.8" y="251.79" class="st7" width="432.21" height="198.6"/>
	<text transform="matrix(1 0 0 1 81.7993 420.5726)"><tspan x="0" y="0" class="st5 st8 st9">S</tspan><tspan x="85" y="0" class="st1 st8 st9">H</tspan><tspan x="204" y="0" class="st0 st8 st9">V</tspan><tspan x="303.75" y="0" class="st4 st8 st9">B</tspan></text>
</g>
</svg>
