<?xml version="1.0" encoding="utf-8"?>
<!-- Generator: Adobe Illustrator 27.9.1, SVG Export Plug-In . SVG Version: 6.00 Build 0)  -->
<svg version="1.1" id="Layer_1" xmlns="http://www.w3.org/2000/svg" xmlns:xlink="http://www.w3.org/1999/xlink" x="0px" y="0px"
	 viewBox="0 0 612 792" style="enable-background:new 0 0 612 792;" xml:space="preserve">
<style type="text/css">
	.st0{fill:#07B688;}
	.st1{fill:#506EB5;}
	.st2{fill:#F3726F;}
	.st3{fill:#8CC63F;}
	.st4{fill:#F9AA8F;}
	.st5{fill:#EF4956;}
	.st6{fill:#66C9CF;}
</style>
<path class="st0" d="M66.4,288.15c21.27,194.5-57.45,72.77-57.45,136.34s22.21,78.89,40.6,90.38c18.38,11.49,63.57,9.96,72-32.94
	s41.36-47.49,54.38-52.85c13.02-5.36,58.98,7.66,60.51,37.53c1.53,29.87,36.77,58.21,64.34,44.43s60.51-52.09,28.34-94.98
	s-49.02-69.7-111.83-55.91s-66.64-75.83-84.26-95.74S61.04,239.13,66.4,288.15z"/>
<path class="st1" d="M289.3,149c-81.57,37.48,0.77,115.66,25.28,147.06c24.51,31.4,28.34,105.7,58.21,90.38s54.38-61.28,43.66-83.49
	c-10.72-22.21,5.36-45.43,32.94-34.21C476.96,279.98,487.68,57.85,289.3,149z"/>
<path class="st2" d="M411.97,402.76c-108.63,111.76-23.39,129.05,62.06,119.3s21.72-67.18,66.53-106.73s13.94-142.09-25.35-135.52
	c-39.29,6.57-91.65-10.91-61.47,50.46C483.92,391.64,434.19,379.9,411.97,402.76z"/>
<path class="st3" d="M99.26,535.3c-32.09,24.01-49.79,75.06-16.85,103.4c32.94,28.34,104.94,35.23,129.45,30.64
	c24.51-4.6,85.79-90.38,43.66-129.45S205.72,455.64,99.26,535.3z"/>
<path class="st4" d="M47.77,113c-22.01,70.86-3.83,90.38,28.34,100.34s73.53-11.49,117.96,37.53s89.62,99.57,67.4,23.74
	s-50.55-143.23-12.26-149.36c38.3-6.13,58.21-70.47,19.15-80.43S86.06-10.32,47.77,113z"/>
<path class="st5" d="M348.28,30.79c-44.76,32.83-55.91,91.15-9.96,78.89s124.85-22.21,139.4,12.26
	c14.55,34.47-19.15,94.98,29.11,124.09s88.09,62.04,75.06-72S417.21-19.77,348.28,30.79z"/>
<path class="st6" d="M352.62,554.96c-65.58,59.88-68.43,127.66-28.6,148.09s86.81,106.21,164.43,11.23s151.15-140.94,15.32-153.19
	C367.94,548.83,399.6,512.06,352.62,554.96z"/>
</svg>
