<svg width="130" height="310" viewBox="0 0 130 310" fill="none" xmlns="http://www.w3.org/2000/svg">
<path d="M5 1C12.3003 37.6821 19.8997 51.021 24.8134 51.021C33.9387 51.021 41.3092 13.5053 44.8189 1" stroke="#1F694A" stroke-width="6"/>
<path d="M85.532 1C92.8323 37.6821 101.326 51.021 106.24 51.021C115.365 51.021 121.49 13.5053 125 1" stroke="#1F694A" stroke-width="6"/>
<path d="M44.8189 1C52.1192 37.6821 60.6128 51.021 65.5265 51.021C74.6518 51.021 82.0223 13.5053 85.532 1" stroke="#1F694A" stroke-width="6"/>
<path d="M4.12479 1C-1.83455 53.6076 4.28128 134.79 28.3346 163.944C40.6257 178.842 96.4945 188.618 114 169.065" stroke="#1F694A" stroke-width="4"/>
<path d="M125.875 1C131.835 53.6076 125.719 134.79 101.665 163.944C89.3743 178.842 33.5055 188.618 16 169.065" stroke="#1F694A" stroke-width="4"/>
<path d="M65.1755 179.779L69.0362 309" stroke="#1F694A" stroke-width="6"/>
</svg>
